<svg xmlns="http://www.w3.org/2000/svg" viewBox="0 0 750 500"><g id="freepik--background-complete--inject-22"><path d="M645.67,327.57A38.66,38.66,0,1,1,685,365.78,38.81,38.81,0,0,1,645.67,327.57Zm57.14-.92a18.49,18.49,0,1,0-18.19,18.86A18.55,18.55,0,0,0,702.81,326.65Z" style="fill:#f5f5f5"></path><path d="M645.67,327.57a38.81,38.81,0,0,1,38-39.46l.33,20.27a18.57,18.57,0,0,0,.59,37.13l.33,20.27A38.79,38.79,0,0,1,645.67,327.57Z" style="fill:#e0e0e0"></path><path d="M680.23,285c24.94-.4,44.83,18.95,45.23,44l-23.6.38c-.19-12-9.3-19.52-21.23-19.33Z" style="fill:#ebebeb"></path><rect x="58.91" y="187.43" width="14.93" height="59.64" style="fill:#ebebeb"></rect><rect x="80.87" y="200.45" width="14.93" height="46.63" style="fill:#ebebeb"></rect><rect x="103.16" y="211.1" width="14.93" height="35.98" style="fill:#ebebeb"></rect><rect x="123.8" y="225.71" width="14.93" height="21.37" style="fill:#ebebeb"></rect><path d="M262.58,427.47c1.25,9.42,10.42,16.12,19.75,17.95s18.92-.07,28.34-1.35,19.44-1.85,28,2.31c7.78,3.8,14.37,11.44,23,11.07,7.9-.34,14.31-7.51,22.21-7.67,6.63-.12,12.38,4.72,18.95,5.6,9.91,1.32,18.52-6.39,28-9.49,9.87-3.21,20.64-1.36,30.91-2.82s21.48-8.59,21.1-19c-30,.6-63.84-.06-98.33.31-41.53.45-84,1.93-121.95,3.05" style="fill:#ebebeb"></path><path d="M155.5,82.14c0-5.92,3.11-9.46,7.42-9.46s7.44,3.54,7.44,9.46-3.14,9.46-7.44,9.46S155.5,88.07,155.5,82.14Zm12.89,0c0-5-2.23-7.7-5.47-7.7s-5.48,2.73-5.48,7.7,2.23,7.71,5.48,7.71S168.39,87.11,168.39,82.14Z" style="fill:#ebebeb"></path><path d="M173.08,82.14c0-5.92,3.11-9.46,7.42-9.46s7.44,3.54,7.44,9.46-3.14,9.46-7.44,9.46S173.08,88.07,173.08,82.14Zm12.89,0c0-5-2.23-7.7-5.47-7.7S175,77.17,175,82.14s2.24,7.71,5.48,7.71S186,87.11,186,82.14Z" style="fill:#ebebeb"></path><path d="M195.77,72.84v18.6h-1.92V74.54h-4.38v-1.7Z" style="fill:#ebebeb"></path><path d="M200.2,82.14c0-5.92,3.11-9.46,7.41-9.46s7.44,3.54,7.44,9.46-3.13,9.46-7.44,9.46S200.2,88.07,200.2,82.14Zm12.89,0c0-5-2.23-7.7-5.48-7.7s-5.47,2.73-5.47,7.7,2.23,7.71,5.47,7.71S213.09,87.11,213.09,82.14Z" style="fill:#ebebeb"></path><path d="M222.89,72.84v18.6H221V74.54h-4.38v-1.7Z" style="fill:#ebebeb"></path><path d="M137.2,108.53c0-5.93,3.11-9.46,7.41-9.46s7.44,3.53,7.44,9.46-3.13,9.46-7.44,9.46S137.2,114.45,137.2,108.53Zm12.89,0c0-5-2.24-7.71-5.48-7.71s-5.47,2.74-5.47,7.71,2.23,7.7,5.47,7.7S150.09,113.5,150.09,108.53Z" style="fill:#ebebeb"></path><path d="M154.78,108.53c0-5.93,3.11-9.46,7.41-9.46s7.44,3.53,7.44,9.46S166.5,118,162.19,118,154.78,114.45,154.78,108.53Zm12.89,0c0-5-2.24-7.71-5.48-7.71s-5.47,2.74-5.47,7.71,2.23,7.7,5.47,7.7S167.67,113.5,167.67,108.53Z" style="fill:#ebebeb"></path><path d="M177.46,99.23v18.6h-1.91v-16.9h-4.38v-1.7Z" style="fill:#ebebeb"></path><path d="M181.9,108.53c0-5.93,3.1-9.46,7.41-9.46s7.44,3.53,7.44,9.46-3.14,9.46-7.44,9.46S181.9,114.45,181.9,108.53Zm12.88,0c0-5-2.23-7.71-5.47-7.71s-5.47,2.74-5.47,7.71,2.23,7.7,5.47,7.7S194.78,113.5,194.78,108.53Z" style="fill:#ebebeb"></path><path d="M204.58,99.23v18.6h-1.91v-16.9h-4.39v-1.7Z" style="fill:#ebebeb"></path><path d="M155.5,134c0-5.92,3.11-9.46,7.42-9.46s7.44,3.54,7.44,9.46-3.14,9.46-7.44,9.46S155.5,140,155.5,134Zm12.89,0c0-5-2.23-7.7-5.47-7.7s-5.48,2.73-5.48,7.7,2.24,7.71,5.48,7.71S168.39,139,168.39,134Z" style="fill:#ebebeb"></path><path d="M178.19,124.74v18.6h-1.91v-16.9h-4.39v-1.7Z" style="fill:#ebebeb"></path><path d="M187.78,124.74v18.6h-1.92v-16.9h-4.38v-1.7Z" style="fill:#ebebeb"></path><path d="M197.37,124.74v18.6h-1.92v-16.9h-4.38v-1.7Z" style="fill:#ebebeb"></path><path d="M201.8,134c0-5.92,3.11-9.46,7.41-9.46s7.44,3.54,7.44,9.46-3.13,9.46-7.44,9.46S201.8,140,201.8,134Zm12.88,0c0-5-2.23-7.7-5.47-7.7s-5.47,2.73-5.47,7.7,2.23,7.71,5.47,7.71S214.68,139,214.68,134Z" style="fill:#ebebeb"></path><path d="M224.48,124.74v18.6h-1.91v-16.9h-4.39v-1.7Z" style="fill:#ebebeb"></path><path d="M230,82.14c0-5.92,3.11-9.46,7.42-9.46s7.44,3.54,7.44,9.46-3.14,9.46-7.44,9.46S230,88.07,230,82.14Zm12.89,0c0-5-2.23-7.7-5.47-7.7s-5.48,2.73-5.48,7.7,2.24,7.71,5.48,7.71S242.87,87.11,242.87,82.14Z" style="fill:#ebebeb"></path><path d="M247.57,82.14c0-5.92,3.1-9.46,7.41-9.46s7.44,3.54,7.44,9.46S259.28,91.6,255,91.6,247.57,88.07,247.57,82.14Zm12.88,0c0-5-2.23-7.7-5.47-7.7s-5.47,2.73-5.47,7.7,2.23,7.71,5.47,7.71S260.45,87.11,260.45,82.14Z" style="fill:#ebebeb"></path><path d="M270.25,72.84v18.6h-1.91V74.54H264v-1.7Z" style="fill:#ebebeb"></path><path d="M274.68,82.14c0-5.92,3.11-9.46,7.42-9.46s7.44,3.54,7.44,9.46-3.14,9.46-7.44,9.46S274.68,88.07,274.68,82.14Zm12.89,0c0-5-2.23-7.7-5.47-7.7s-5.48,2.73-5.48,7.7,2.23,7.71,5.48,7.71S287.57,87.11,287.57,82.14Z" style="fill:#ebebeb"></path><path d="M297.37,72.84v18.6h-1.92V74.54h-4.38v-1.7Z" style="fill:#ebebeb"></path><path d="M211.68,108.53c0-5.93,3.11-9.46,7.41-9.46s7.44,3.53,7.44,9.46S223.4,118,219.09,118,211.68,114.45,211.68,108.53Zm12.89,0c0-5-2.23-7.71-5.48-7.71s-5.47,2.74-5.47,7.71,2.23,7.7,5.47,7.7S224.57,113.5,224.57,108.53Z" style="fill:#ebebeb"></path><path d="M229.26,108.53c0-5.93,3.11-9.46,7.41-9.46s7.44,3.53,7.44,9.46S241,118,236.67,118,229.26,114.45,229.26,108.53Zm12.89,0c0-5-2.23-7.71-5.48-7.71s-5.47,2.74-5.47,7.71,2.23,7.7,5.47,7.7S242.15,113.5,242.15,108.53Z" style="fill:#ebebeb"></path><path d="M252,99.23v18.6H250v-16.9h-4.38v-1.7Z" style="fill:#ebebeb"></path><path d="M256.38,108.53c0-5.93,3.11-9.46,7.41-9.46s7.44,3.53,7.44,9.46S268.1,118,263.79,118,256.38,114.45,256.38,108.53Zm12.89,0c0-5-2.24-7.71-5.48-7.71s-5.47,2.74-5.47,7.71,2.23,7.7,5.47,7.7S269.27,113.5,269.27,108.53Z" style="fill:#ebebeb"></path><path d="M279.06,99.23v18.6h-1.91v-16.9h-4.39v-1.7Z" style="fill:#ebebeb"></path><path d="M288.65,99.23v18.6h-1.91v-16.9h-4.39v-1.7Z" style="fill:#ebebeb"></path><path d="M293.08,108.53c0-5.93,3.11-9.46,7.42-9.46s7.43,3.53,7.43,9.46S304.8,118,300.5,118,293.08,114.45,293.08,108.53Zm12.89,0c0-5-2.23-7.71-5.47-7.71s-5.48,2.74-5.48,7.71,2.23,7.7,5.48,7.7S306,113.5,306,108.53Z" style="fill:#ebebeb"></path><path d="M315.77,99.23v18.6h-1.92v-16.9h-4.38v-1.7Z" style="fill:#ebebeb"></path><path d="M230,134c0-5.92,3.11-9.46,7.41-9.46s7.44,3.54,7.44,9.46-3.13,9.46-7.44,9.46S230,140,230,134Zm12.88,0c0-5-2.23-7.7-5.47-7.7s-5.47,2.73-5.47,7.7,2.23,7.71,5.47,7.71S242.87,139,242.87,134Z" style="fill:#ebebeb"></path><path d="M252.67,124.74v18.6h-1.91v-16.9h-4.39v-1.7Z" style="fill:#ebebeb"></path><path d="M262.26,124.74v18.6h-1.91v-16.9H256v-1.7Z" style="fill:#ebebeb"></path><path d="M271.85,124.74v18.6h-1.92v-16.9h-4.38v-1.7Z" style="fill:#ebebeb"></path><path d="M276.28,134c0-5.92,3.11-9.46,7.41-9.46s7.44,3.54,7.44,9.46-3.13,9.46-7.44,9.46S276.28,140,276.28,134Zm12.89,0c0-5-2.24-7.7-5.48-7.7s-5.47,2.73-5.47,7.7,2.23,7.71,5.47,7.71S289.17,139,289.17,134Z" style="fill:#ebebeb"></path><path d="M299,124.74v18.6h-1.91v-16.9h-4.38v-1.7Z" style="fill:#ebebeb"></path><path d="M219.61,160.52c0-5.92,3.11-9.45,7.41-9.45s7.44,3.53,7.44,9.45S231.33,170,227,170,219.61,166.45,219.61,160.52Zm12.89,0c0-5-2.23-7.7-5.48-7.7s-5.47,2.74-5.47,7.7,2.23,7.71,5.47,7.71S232.5,165.49,232.5,160.52Z" style="fill:#ebebeb"></path><path d="M237.19,160.52c0-5.92,3.11-9.45,7.42-9.45s7.44,3.53,7.44,9.45-3.14,9.46-7.44,9.46S237.19,166.45,237.19,160.52Zm12.89,0c0-5-2.23-7.7-5.47-7.7s-5.48,2.74-5.48,7.7,2.23,7.71,5.48,7.71S250.08,165.49,250.08,160.52Z" style="fill:#ebebeb"></path><path d="M259.88,151.22v18.6H258v-16.9h-4.38v-1.7Z" style="fill:#ebebeb"></path><path d="M264.31,160.52c0-5.92,3.11-9.45,7.41-9.45s7.44,3.53,7.44,9.45S276,170,271.72,170,264.31,166.45,264.31,160.52Zm12.89,0c0-5-2.24-7.7-5.48-7.7s-5.47,2.74-5.47,7.7,2.23,7.71,5.47,7.71S277.2,165.49,277.2,160.52Z" style="fill:#ebebeb"></path><path d="M287,151.22v18.6h-1.91v-16.9H280.7v-1.7Z" style="fill:#ebebeb"></path><path d="M201.31,186.91c0-5.93,3.1-9.46,7.41-9.46s7.44,3.53,7.44,9.46-3.14,9.46-7.44,9.46S201.31,192.83,201.31,186.91Zm12.88,0c0-5-2.23-7.71-5.47-7.71s-5.47,2.74-5.47,7.71,2.23,7.7,5.47,7.7S214.19,191.88,214.19,186.91Z" style="fill:#ebebeb"></path><path d="M218.89,186.91c0-5.93,3.11-9.46,7.41-9.46s7.44,3.53,7.44,9.46-3.13,9.46-7.44,9.46S218.89,192.83,218.89,186.91Zm12.89,0c0-5-2.24-7.71-5.48-7.71s-5.47,2.74-5.47,7.71,2.23,7.7,5.47,7.7S231.78,191.88,231.78,186.91Z" style="fill:#ebebeb"></path><path d="M241.57,177.61v18.6h-1.91v-16.9h-4.39v-1.7Z" style="fill:#ebebeb"></path><path d="M246,186.91c0-5.93,3.11-9.46,7.42-9.46s7.44,3.53,7.44,9.46-3.14,9.46-7.44,9.46S246,192.83,246,186.91Zm12.89,0c0-5-2.23-7.71-5.47-7.71s-5.48,2.74-5.48,7.71,2.24,7.7,5.48,7.7S258.89,191.88,258.89,186.91Z" style="fill:#ebebeb"></path><path d="M268.69,177.61v18.6h-1.91v-16.9h-4.39v-1.7Z" style="fill:#ebebeb"></path><path d="M219.61,212.42c0-5.92,3.11-9.45,7.42-9.45s7.44,3.53,7.44,9.45-3.14,9.46-7.44,9.46S219.61,218.35,219.61,212.42Zm12.89,0c0-5-2.23-7.7-5.47-7.7s-5.48,2.74-5.48,7.7,2.23,7.71,5.48,7.71S232.5,217.39,232.5,212.42Z" style="fill:#ebebeb"></path><path d="M242.3,203.12v18.6h-1.92V204.83H236v-1.71Z" style="fill:#ebebeb"></path><path d="M251.89,203.12v18.6H250V204.83h-4.38v-1.71Z" style="fill:#ebebeb"></path><path d="M261.47,203.12v18.6h-1.91V204.83h-4.38v-1.71Z" style="fill:#ebebeb"></path><path d="M265.9,212.42c0-5.92,3.11-9.45,7.42-9.45s7.44,3.53,7.44,9.45-3.14,9.46-7.44,9.46S265.9,218.35,265.9,212.42Zm12.89,0c0-5-2.23-7.7-5.47-7.7s-5.48,2.74-5.48,7.7,2.24,7.71,5.48,7.71S278.79,217.39,278.79,212.42Z" style="fill:#ebebeb"></path><path d="M288.59,203.12v18.6h-1.91V204.83h-4.39v-1.71Z" style="fill:#ebebeb"></path><path d="M294.09,160.52c0-5.92,3.11-9.45,7.42-9.45s7.44,3.53,7.44,9.45-3.14,9.46-7.44,9.46S294.09,166.45,294.09,160.52Zm12.89,0c0-5-2.23-7.7-5.47-7.7s-5.48,2.74-5.48,7.7,2.23,7.71,5.48,7.71S307,165.49,307,160.52Z" style="fill:#ebebeb"></path><path d="M311.67,160.52c0-5.92,3.11-9.45,7.42-9.45s7.44,3.53,7.44,9.45-3.14,9.46-7.44,9.46S311.67,166.45,311.67,160.52Zm12.89,0c0-5-2.23-7.7-5.47-7.7s-5.48,2.74-5.48,7.7,2.24,7.71,5.48,7.71S324.56,165.49,324.56,160.52Z" style="fill:#ebebeb"></path><path d="M334.36,151.22v18.6h-1.92v-16.9h-4.38v-1.7Z" style="fill:#ebebeb"></path><path d="M338.79,160.52c0-5.92,3.11-9.45,7.41-9.45s7.44,3.53,7.44,9.45S350.51,170,346.2,170,338.79,166.45,338.79,160.52Zm12.89,0c0-5-2.23-7.7-5.48-7.7s-5.47,2.74-5.47,7.7,2.23,7.71,5.47,7.71S351.68,165.49,351.68,160.52Z" style="fill:#ebebeb"></path><path d="M361.48,151.22v18.6h-1.92v-16.9h-4.38v-1.7Z" style="fill:#ebebeb"></path><path d="M275.79,186.91c0-5.93,3.11-9.46,7.41-9.46s7.44,3.53,7.44,9.46-3.13,9.46-7.44,9.46S275.79,192.83,275.79,186.91Zm12.89,0c0-5-2.24-7.71-5.48-7.71s-5.47,2.74-5.47,7.71,2.23,7.7,5.47,7.7S288.68,191.88,288.68,186.91Z" style="fill:#ebebeb"></path><path d="M293.37,186.91c0-5.93,3.11-9.46,7.41-9.46s7.44,3.53,7.44,9.46-3.13,9.46-7.44,9.46S293.37,192.83,293.37,186.91Zm12.89,0c0-5-2.23-7.71-5.48-7.71s-5.47,2.74-5.47,7.71,2.23,7.7,5.47,7.7S306.26,191.88,306.26,186.91Z" style="fill:#ebebeb"></path><path d="M316.05,177.61v18.6h-1.91v-16.9h-4.38v-1.7Z" style="fill:#ebebeb"></path><path d="M320.49,186.91c0-5.93,3.11-9.46,7.41-9.46s7.44,3.53,7.44,9.46-3.13,9.46-7.44,9.46S320.49,192.83,320.49,186.91Zm12.88,0c0-5-2.23-7.71-5.47-7.71s-5.47,2.74-5.47,7.71,2.23,7.7,5.47,7.7S333.37,191.88,333.37,186.91Z" style="fill:#ebebeb"></path><path d="M343.17,177.61v18.6h-1.91v-16.9h-4.39v-1.7Z" style="fill:#ebebeb"></path><path d="M352.76,177.61v18.6h-1.91v-16.9h-4.39v-1.7Z" style="fill:#ebebeb"></path><path d="M357.19,186.91c0-5.93,3.11-9.46,7.41-9.46S372,181,372,186.91s-3.13,9.46-7.44,9.46S357.19,192.83,357.19,186.91Zm12.89,0c0-5-2.23-7.71-5.48-7.71s-5.47,2.74-5.47,7.71,2.23,7.7,5.47,7.7S370.08,191.88,370.08,186.91Z" style="fill:#ebebeb"></path><path d="M379.88,177.61v18.6H378v-16.9h-4.38v-1.7Z" style="fill:#ebebeb"></path><path d="M294.09,212.42c0-5.92,3.11-9.45,7.42-9.45s7.44,3.53,7.44,9.45-3.14,9.46-7.44,9.46S294.09,218.35,294.09,212.42Zm12.89,0c0-5-2.23-7.7-5.47-7.7s-5.48,2.74-5.48,7.7,2.24,7.71,5.48,7.71S307,217.39,307,212.42Z" style="fill:#ebebeb"></path><path d="M316.78,203.12v18.6h-1.91V204.83h-4.39v-1.71Z" style="fill:#ebebeb"></path><path d="M326.37,203.12v18.6h-1.92V204.83h-4.38v-1.71Z" style="fill:#ebebeb"></path><path d="M336,203.12v18.6H334V204.83h-4.38v-1.71Z" style="fill:#ebebeb"></path><path d="M340.39,212.42c0-5.92,3.11-9.45,7.41-9.45s7.44,3.53,7.44,9.45-3.13,9.46-7.44,9.46S340.39,218.35,340.39,212.42Zm12.88,0c0-5-2.23-7.7-5.47-7.7s-5.47,2.74-5.47,7.7,2.23,7.71,5.47,7.71S353.27,217.39,353.27,212.42Z" style="fill:#ebebeb"></path><path d="M363.07,203.12v18.6h-1.91V204.83h-4.39v-1.71Z" style="fill:#ebebeb"></path><path d="M393.72,225c0-5.92,3.11-9.46,7.42-9.46s7.44,3.54,7.44,9.46-3.14,9.46-7.44,9.46S393.72,230.89,393.72,225Zm12.89,0c0-5-2.23-7.7-5.47-7.7s-5.48,2.73-5.48,7.7,2.24,7.71,5.48,7.71S406.61,229.93,406.61,225Z" style="fill:#ebebeb"></path><path d="M411.31,225c0-5.92,3.1-9.46,7.41-9.46s7.44,3.54,7.44,9.46-3.14,9.46-7.44,9.46S411.31,230.89,411.31,225Zm12.88,0c0-5-2.23-7.7-5.47-7.7s-5.47,2.73-5.47,7.7,2.23,7.71,5.47,7.71S424.19,229.93,424.19,225Z" style="fill:#ebebeb"></path><path d="M434,215.66v18.6h-1.91v-16.9h-4.39v-1.7Z" style="fill:#ebebeb"></path><path d="M438.42,225c0-5.92,3.11-9.46,7.42-9.46s7.44,3.54,7.44,9.46-3.14,9.46-7.44,9.46S438.42,230.89,438.42,225Zm12.89,0c0-5-2.23-7.7-5.47-7.7s-5.48,2.73-5.48,7.7,2.23,7.71,5.48,7.71S451.31,229.93,451.31,225Z" style="fill:#ebebeb"></path><path d="M461.11,215.66v18.6h-1.92v-16.9h-4.38v-1.7Z" style="fill:#ebebeb"></path><path d="M375.42,251.35c0-5.93,3.11-9.46,7.41-9.46s7.44,3.53,7.44,9.46-3.13,9.46-7.44,9.46S375.42,257.27,375.42,251.35Zm12.89,0c0-5-2.23-7.71-5.48-7.71s-5.47,2.74-5.47,7.71,2.23,7.7,5.47,7.7S388.31,256.32,388.31,251.35Z" style="fill:#ebebeb"></path><path d="M393,251.35c0-5.93,3.11-9.46,7.42-9.46s7.43,3.53,7.43,9.46-3.13,9.46-7.43,9.46S393,257.27,393,251.35Zm12.89,0c0-5-2.23-7.71-5.47-7.71s-5.48,2.74-5.48,7.71,2.23,7.7,5.48,7.7S405.89,256.32,405.89,251.35Z" style="fill:#ebebeb"></path><path d="M415.69,242.05v18.6h-1.92v-16.9h-4.38v-1.7Z" style="fill:#ebebeb"></path><path d="M420.12,251.35c0-5.93,3.11-9.46,7.41-9.46s7.44,3.53,7.44,9.46-3.13,9.46-7.44,9.46S420.12,257.27,420.12,251.35Zm12.89,0c0-5-2.24-7.71-5.48-7.71s-5.47,2.74-5.47,7.71,2.23,7.7,5.47,7.7S433,256.32,433,251.35Z" style="fill:#ebebeb"></path><path d="M442.8,242.05v18.6h-1.91v-16.9h-4.38v-1.7Z" style="fill:#ebebeb"></path><path d="M393.73,276.86c0-5.92,3.11-9.46,7.41-9.46s7.44,3.54,7.44,9.46-3.13,9.46-7.44,9.46S393.73,282.79,393.73,276.86Zm12.88,0c0-5-2.23-7.7-5.47-7.7s-5.47,2.73-5.47,7.7,2.23,7.71,5.47,7.71S406.61,281.83,406.61,276.86Z" style="fill:#ebebeb"></path><path d="M416.41,267.56v18.6H414.5v-16.9h-4.39v-1.7Z" style="fill:#ebebeb"></path><path d="M426,267.56v18.6h-1.91v-16.9H419.7v-1.7Z" style="fill:#ebebeb"></path><path d="M435.59,267.56v18.6h-1.92v-16.9h-4.38v-1.7Z" style="fill:#ebebeb"></path><path d="M440,276.86c0-5.92,3.11-9.46,7.41-9.46s7.44,3.54,7.44,9.46-3.13,9.46-7.44,9.46S440,282.79,440,276.86Zm12.89,0c0-5-2.24-7.7-5.48-7.7s-5.47,2.73-5.47,7.7,2.23,7.71,5.47,7.71S452.91,281.83,452.91,276.86Z" style="fill:#ebebeb"></path><path d="M462.7,267.56v18.6h-1.91v-16.9h-4.38v-1.7Z" style="fill:#ebebeb"></path><path d="M468.21,225c0-5.92,3.1-9.46,7.41-9.46s7.44,3.54,7.44,9.46-3.14,9.46-7.44,9.46S468.21,230.89,468.21,225Zm12.88,0c0-5-2.23-7.7-5.47-7.7s-5.47,2.73-5.47,7.7,2.23,7.71,5.47,7.71S481.09,229.93,481.09,225Z" style="fill:#ebebeb"></path><path d="M485.79,225c0-5.92,3.11-9.46,7.41-9.46s7.44,3.54,7.44,9.46-3.13,9.46-7.44,9.46S485.79,230.89,485.79,225Zm12.89,0c0-5-2.24-7.7-5.48-7.7s-5.47,2.73-5.47,7.7,2.23,7.71,5.47,7.71S498.68,229.93,498.68,225Z" style="fill:#ebebeb"></path><path d="M508.47,215.66v18.6h-1.91v-16.9h-4.39v-1.7Z" style="fill:#ebebeb"></path><path d="M512.9,225c0-5.92,3.11-9.46,7.42-9.46s7.44,3.54,7.44,9.46-3.14,9.46-7.44,9.46S512.9,230.89,512.9,225Zm12.89,0c0-5-2.23-7.7-5.47-7.7s-5.48,2.73-5.48,7.7,2.24,7.71,5.48,7.71S525.79,229.93,525.79,225Z" style="fill:#ebebeb"></path><path d="M535.59,215.66v18.6h-1.91v-16.9h-4.39v-1.7Z" style="fill:#ebebeb"></path><path d="M449.9,251.35c0-5.93,3.11-9.46,7.42-9.46s7.43,3.53,7.43,9.46-3.13,9.46-7.43,9.46S449.9,257.27,449.9,251.35Zm12.89,0c0-5-2.23-7.71-5.47-7.71s-5.48,2.74-5.48,7.71,2.23,7.7,5.48,7.7S462.79,256.32,462.79,251.35Z" style="fill:#ebebeb"></path><path d="M467.48,251.35c0-5.93,3.11-9.46,7.42-9.46s7.44,3.53,7.44,9.46-3.14,9.46-7.44,9.46S467.48,257.27,467.48,251.35Zm12.89,0c0-5-2.23-7.71-5.47-7.71s-5.48,2.74-5.48,7.71,2.23,7.7,5.48,7.7S480.37,256.32,480.37,251.35Z" style="fill:#ebebeb"></path><path d="M490.17,242.05v18.6h-1.92v-16.9h-4.38v-1.7Z" style="fill:#ebebeb"></path><path d="M494.6,251.35c0-5.93,3.11-9.46,7.41-9.46s7.44,3.53,7.44,9.46-3.13,9.46-7.44,9.46S494.6,257.27,494.6,251.35Zm12.89,0c0-5-2.23-7.71-5.48-7.71s-5.47,2.74-5.47,7.71,2.23,7.7,5.47,7.7S507.49,256.32,507.49,251.35Z" style="fill:#ebebeb"></path><path d="M517.29,242.05v18.6h-1.92v-16.9H511v-1.7Z" style="fill:#ebebeb"></path><path d="M526.87,242.05v18.6H525v-16.9h-4.38v-1.7Z" style="fill:#ebebeb"></path><path d="M531.3,251.35c0-5.93,3.11-9.46,7.42-9.46s7.44,3.53,7.44,9.46-3.14,9.46-7.44,9.46S531.3,257.27,531.3,251.35Zm12.89,0c0-5-2.23-7.71-5.47-7.71s-5.48,2.74-5.48,7.71,2.24,7.7,5.48,7.7S544.19,256.32,544.19,251.35Z" style="fill:#ebebeb"></path><path d="M554,242.05v18.6h-1.91v-16.9h-4.39v-1.7Z" style="fill:#ebebeb"></path><path d="M468.21,276.86c0-5.92,3.11-9.46,7.41-9.46s7.44,3.54,7.44,9.46-3.13,9.46-7.44,9.46S468.21,282.79,468.21,276.86Zm12.89,0c0-5-2.24-7.7-5.48-7.7s-5.47,2.73-5.47,7.7,2.23,7.71,5.47,7.71S481.1,281.83,481.1,276.86Z" style="fill:#ebebeb"></path><path d="M490.89,267.56v18.6H489v-16.9H484.6v-1.7Z" style="fill:#ebebeb"></path><path d="M500.48,267.56v18.6h-1.91v-16.9h-4.39v-1.7Z" style="fill:#ebebeb"></path><path d="M510.07,267.56v18.6h-1.91v-16.9h-4.39v-1.7Z" style="fill:#ebebeb"></path><path d="M514.5,276.86c0-5.92,3.11-9.46,7.41-9.46s7.44,3.54,7.44,9.46-3.13,9.46-7.44,9.46S514.5,282.79,514.5,276.86Zm12.89,0c0-5-2.23-7.7-5.48-7.7s-5.47,2.73-5.47,7.7,2.23,7.71,5.47,7.71S527.39,281.83,527.39,276.86Z" style="fill:#ebebeb"></path><path d="M537.19,267.56v18.6h-1.92v-16.9h-4.38v-1.7Z" style="fill:#ebebeb"></path><path d="M457.83,303.34c0-5.92,3.11-9.45,7.42-9.45s7.44,3.53,7.44,9.45-3.14,9.46-7.44,9.46S457.83,309.27,457.83,303.34Zm12.89,0c0-5-2.23-7.7-5.47-7.7s-5.48,2.74-5.48,7.7,2.23,7.71,5.48,7.71S470.72,308.31,470.72,303.34Z" style="fill:#ebebeb"></path><path d="M475.41,303.34c0-5.92,3.11-9.45,7.42-9.45s7.44,3.53,7.44,9.45-3.14,9.46-7.44,9.46S475.41,309.27,475.41,303.34Zm12.89,0c0-5-2.23-7.7-5.47-7.7s-5.48,2.74-5.48,7.7,2.24,7.71,5.48,7.71S488.3,308.31,488.3,303.34Z" style="fill:#ebebeb"></path><path d="M498.1,294v18.6h-1.91v-16.9H491.8V294Z" style="fill:#ebebeb"></path><path d="M502.53,303.34c0-5.92,3.11-9.45,7.42-9.45s7.43,3.53,7.43,9.45-3.13,9.46-7.43,9.46S502.53,309.27,502.53,303.34Zm12.89,0c0-5-2.23-7.7-5.47-7.7s-5.48,2.74-5.48,7.7,2.23,7.71,5.48,7.71S515.42,308.31,515.42,303.34Z" style="fill:#ebebeb"></path><path d="M525.22,294v18.6H523.3v-16.9h-4.38V294Z" style="fill:#ebebeb"></path><path d="M439.53,329.73c0-5.93,3.11-9.46,7.41-9.46s7.44,3.53,7.44,9.46-3.13,9.46-7.44,9.46S439.53,335.65,439.53,329.73Zm12.89,0c0-5-2.24-7.71-5.48-7.71s-5.47,2.74-5.47,7.71,2.23,7.7,5.47,7.7S452.42,334.7,452.42,329.73Z" style="fill:#ebebeb"></path><path d="M457.11,329.73c0-5.93,3.11-9.46,7.41-9.46s7.44,3.53,7.44,9.46-3.13,9.46-7.44,9.46S457.11,335.65,457.11,329.73Zm12.89,0c0-5-2.23-7.71-5.48-7.71s-5.47,2.74-5.47,7.71,2.23,7.7,5.47,7.7S470,334.7,470,329.73Z" style="fill:#ebebeb"></path><path d="M479.79,320.43V339h-1.91v-16.9H473.5v-1.7Z" style="fill:#ebebeb"></path><path d="M484.23,329.73c0-5.93,3.11-9.46,7.41-9.46s7.44,3.53,7.44,9.46-3.13,9.46-7.44,9.46S484.23,335.65,484.23,329.73Zm12.88,0c0-5-2.23-7.71-5.47-7.71s-5.47,2.74-5.47,7.71,2.23,7.7,5.47,7.7S497.11,334.7,497.11,329.73Z" style="fill:#ebebeb"></path><path d="M506.91,320.43V339H505v-16.9h-4.39v-1.7Z" style="fill:#ebebeb"></path><path d="M457.84,355.24c0-5.92,3.1-9.45,7.41-9.45s7.44,3.53,7.44,9.45-3.14,9.46-7.44,9.46S457.84,361.17,457.84,355.24Zm12.88,0c0-5-2.23-7.7-5.47-7.7s-5.47,2.74-5.47,7.7S462,363,465.25,363,470.72,360.21,470.72,355.24Z" style="fill:#ebebeb"></path><path d="M480.52,345.94v18.6h-1.91V347.65h-4.39v-1.71Z" style="fill:#ebebeb"></path><path d="M490.11,345.94v18.6h-1.92V347.65h-4.38v-1.71Z" style="fill:#ebebeb"></path><path d="M499.7,345.94v18.6h-1.92V347.65H493.4v-1.71Z" style="fill:#ebebeb"></path><path d="M504.13,355.24c0-5.92,3.11-9.45,7.41-9.45s7.44,3.53,7.44,9.45-3.13,9.46-7.44,9.46S504.13,361.17,504.13,355.24Zm12.89,0c0-5-2.24-7.7-5.48-7.7s-5.47,2.74-5.47,7.7,2.23,7.71,5.47,7.71S517,360.21,517,355.24Z" style="fill:#ebebeb"></path><path d="M526.81,345.94v18.6H524.9V347.65h-4.39v-1.71Z" style="fill:#ebebeb"></path><path d="M532.31,303.34c0-5.92,3.11-9.45,7.42-9.45s7.44,3.53,7.44,9.45-3.14,9.46-7.44,9.46S532.31,309.27,532.31,303.34Zm12.89,0c0-5-2.23-7.7-5.47-7.7s-5.48,2.74-5.48,7.7,2.24,7.71,5.48,7.71S545.2,308.31,545.2,303.34Z" style="fill:#ebebeb"></path><path d="M549.9,303.34c0-5.92,3.1-9.45,7.41-9.45s7.44,3.53,7.44,9.45-3.13,9.46-7.44,9.46S549.9,309.27,549.9,303.34Zm12.88,0c0-5-2.23-7.7-5.47-7.7s-5.47,2.74-5.47,7.7,2.23,7.71,5.47,7.71S562.78,308.31,562.78,303.34Z" style="fill:#ebebeb"></path><path d="M572.58,294v18.6h-1.91v-16.9h-4.39V294Z" style="fill:#ebebeb"></path><path d="M577,303.34c0-5.92,3.11-9.45,7.42-9.45s7.44,3.53,7.44,9.45-3.14,9.46-7.44,9.46S577,309.27,577,303.34Zm12.89,0c0-5-2.23-7.7-5.47-7.7s-5.48,2.74-5.48,7.7,2.23,7.71,5.48,7.71S589.9,308.31,589.9,303.34Z" style="fill:#ebebeb"></path><path d="M599.7,294v18.6h-1.92v-16.9H593.4V294Z" style="fill:#ebebeb"></path><path d="M514,329.73c0-5.93,3.11-9.46,7.41-9.46s7.44,3.53,7.44,9.46-3.13,9.46-7.44,9.46S514,335.65,514,329.73Zm12.89,0c0-5-2.23-7.71-5.48-7.71s-5.47,2.74-5.47,7.71,2.23,7.7,5.47,7.7S526.9,334.7,526.9,329.73Z" style="fill:#ebebeb"></path><path d="M531.59,329.73c0-5.93,3.11-9.46,7.42-9.46s7.44,3.53,7.44,9.46-3.14,9.46-7.44,9.46S531.59,335.65,531.59,329.73Zm12.89,0c0-5-2.23-7.71-5.47-7.71s-5.48,2.74-5.48,7.71,2.23,7.7,5.48,7.7S544.48,334.7,544.48,329.73Z" style="fill:#ebebeb"></path><path d="M554.28,320.43V339h-1.92v-16.9H548v-1.7Z" style="fill:#ebebeb"></path><path d="M558.71,329.73c0-5.93,3.11-9.46,7.41-9.46s7.44,3.53,7.44,9.46-3.13,9.46-7.44,9.46S558.71,335.65,558.71,329.73Zm12.89,0c0-5-2.24-7.71-5.48-7.71s-5.47,2.74-5.47,7.71,2.23,7.7,5.47,7.7S571.6,334.7,571.6,329.73Z" style="fill:#ebebeb"></path><path d="M581.39,320.43V339h-1.91v-16.9H575.1v-1.7Z" style="fill:#ebebeb"></path><path d="M591,320.43V339h-1.91v-16.9h-4.39v-1.7Z" style="fill:#ebebeb"></path><path d="M595.41,329.73c0-5.93,3.11-9.46,7.42-9.46s7.44,3.53,7.44,9.46-3.14,9.46-7.44,9.46S595.41,335.65,595.41,329.73Zm12.89,0c0-5-2.23-7.71-5.47-7.71s-5.48,2.74-5.48,7.71,2.23,7.7,5.48,7.7S608.3,334.7,608.3,329.73Z" style="fill:#ebebeb"></path><path d="M618.1,320.43V339h-1.92v-16.9H611.8v-1.7Z" style="fill:#ebebeb"></path><path d="M532.32,355.24c0-5.92,3.11-9.45,7.41-9.45s7.44,3.53,7.44,9.45-3.13,9.46-7.44,9.46S532.32,361.17,532.32,355.24Zm12.89,0c0-5-2.24-7.7-5.48-7.7s-5.47,2.74-5.47,7.7,2.23,7.71,5.47,7.71S545.21,360.21,545.21,355.24Z" style="fill:#ebebeb"></path><path d="M555,345.94v18.6h-1.91V347.65H548.7v-1.71Z" style="fill:#ebebeb"></path><path d="M564.59,345.94v18.6h-1.91V347.65h-4.39v-1.71Z" style="fill:#ebebeb"></path><path d="M574.18,345.94v18.6h-1.92V347.65h-4.38v-1.71Z" style="fill:#ebebeb"></path><path d="M578.61,355.24c0-5.92,3.11-9.45,7.41-9.45s7.44,3.53,7.44,9.45-3.13,9.46-7.44,9.46S578.61,361.17,578.61,355.24Zm12.89,0c0-5-2.23-7.7-5.48-7.7s-5.47,2.74-5.47,7.7S582.78,363,586,363,591.5,360.21,591.5,355.24Z" style="fill:#ebebeb"></path><path d="M601.29,345.94v18.6h-1.91V347.65H595v-1.71Z" style="fill:#ebebeb"></path><path d="M203.7,263.08c0-5.93,3.11-9.46,7.42-9.46s7.43,3.53,7.43,9.46-3.13,9.46-7.43,9.46S203.7,269,203.7,263.08Zm12.89,0c0-5-2.23-7.71-5.47-7.71s-5.48,2.74-5.48,7.71,2.23,7.7,5.48,7.7S216.59,268.05,216.59,263.08Z" style="fill:#ebebeb"></path><path d="M221.28,263.08c0-5.93,3.11-9.46,7.42-9.46s7.44,3.53,7.44,9.46-3.14,9.46-7.44,9.46S221.28,269,221.28,263.08Zm12.89,0c0-5-2.23-7.71-5.47-7.71s-5.48,2.74-5.48,7.71,2.23,7.7,5.48,7.7S234.17,268.05,234.17,263.08Z" style="fill:#ebebeb"></path><path d="M244,253.78v18.6h-1.92v-16.9h-4.38v-1.7Z" style="fill:#ebebeb"></path><path d="M248.4,263.08c0-5.93,3.11-9.46,7.41-9.46s7.44,3.53,7.44,9.46-3.13,9.46-7.44,9.46S248.4,269,248.4,263.08Zm12.89,0c0-5-2.23-7.71-5.48-7.71s-5.47,2.74-5.47,7.71,2.23,7.7,5.47,7.7S261.29,268.05,261.29,263.08Z" style="fill:#ebebeb"></path><path d="M271.09,253.78v18.6h-1.92v-16.9h-4.38v-1.7Z" style="fill:#ebebeb"></path><path d="M185.4,289.46c0-5.92,3.11-9.46,7.41-9.46s7.44,3.54,7.44,9.46-3.13,9.46-7.44,9.46S185.4,295.39,185.4,289.46Zm12.88,0c0-5-2.23-7.7-5.47-7.7s-5.47,2.73-5.47,7.7,2.23,7.71,5.47,7.71S198.28,294.43,198.28,289.46Z" style="fill:#ebebeb"></path><path d="M203,289.46c0-5.92,3.11-9.46,7.41-9.46s7.44,3.54,7.44,9.46-3.13,9.46-7.44,9.46S203,295.39,203,289.46Zm12.89,0c0-5-2.24-7.7-5.48-7.7s-5.47,2.73-5.47,7.7,2.23,7.71,5.47,7.71S215.87,294.43,215.87,289.46Z" style="fill:#ebebeb"></path><path d="M225.66,280.16v18.6h-1.91v-16.9h-4.38v-1.7Z" style="fill:#ebebeb"></path><path d="M230.1,289.46c0-5.92,3.1-9.46,7.41-9.46s7.44,3.54,7.44,9.46-3.14,9.46-7.44,9.46S230.1,295.39,230.1,289.46Zm12.88,0c0-5-2.23-7.7-5.47-7.7s-5.47,2.73-5.47,7.7,2.23,7.71,5.47,7.71S243,294.43,243,289.46Z" style="fill:#ebebeb"></path><path d="M252.78,280.16v18.6h-1.91v-16.9h-4.39v-1.7Z" style="fill:#ebebeb"></path><path d="M203.7,315c0-5.93,3.11-9.46,7.42-9.46s7.44,3.53,7.44,9.46-3.14,9.46-7.44,9.46S203.7,320.9,203.7,315Zm12.89,0c0-5-2.23-7.71-5.47-7.71s-5.48,2.74-5.48,7.71,2.24,7.7,5.48,7.7S216.59,320,216.59,315Z" style="fill:#ebebeb"></path><path d="M226.39,305.68v18.6h-1.91v-16.9h-4.39v-1.7Z" style="fill:#ebebeb"></path><path d="M236,305.68v18.6h-1.92v-16.9h-4.38v-1.7Z" style="fill:#ebebeb"></path><path d="M245.57,305.68v18.6h-1.92v-16.9h-4.38v-1.7Z" style="fill:#ebebeb"></path><path d="M250,315c0-5.93,3.1-9.46,7.41-9.46s7.44,3.53,7.44,9.46-3.13,9.46-7.44,9.46S250,320.9,250,315Zm12.88,0c0-5-2.23-7.71-5.47-7.71s-5.47,2.74-5.47,7.71,2.23,7.7,5.47,7.7S262.88,320,262.88,315Z" style="fill:#ebebeb"></path><path d="M272.68,305.68v18.6h-1.91v-16.9h-4.39v-1.7Z" style="fill:#ebebeb"></path><path d="M278.18,263.08c0-5.93,3.11-9.46,7.42-9.46s7.44,3.53,7.44,9.46-3.14,9.46-7.44,9.46S278.18,269,278.18,263.08Zm12.89,0c0-5-2.23-7.71-5.47-7.71s-5.48,2.74-5.48,7.71,2.24,7.7,5.48,7.7S291.07,268.05,291.07,263.08Z" style="fill:#ebebeb"></path><path d="M295.77,263.08c0-5.93,3.1-9.46,7.41-9.46s7.44,3.53,7.44,9.46-3.14,9.46-7.44,9.46S295.77,269,295.77,263.08Zm12.88,0c0-5-2.23-7.71-5.47-7.71s-5.48,2.74-5.48,7.71,2.24,7.7,5.48,7.7S308.65,268.05,308.65,263.08Z" style="fill:#ebebeb"></path><path d="M318.45,253.78v18.6h-1.91v-16.9h-4.39v-1.7Z" style="fill:#ebebeb"></path><path d="M322.88,263.08c0-5.93,3.11-9.46,7.42-9.46s7.44,3.53,7.44,9.46-3.14,9.46-7.44,9.46S322.88,269,322.88,263.08Zm12.89,0c0-5-2.23-7.71-5.47-7.71s-5.48,2.74-5.48,7.71,2.23,7.7,5.48,7.7S335.77,268.05,335.77,263.08Z" style="fill:#ebebeb"></path><path d="M345.57,253.78v18.6h-1.92v-16.9h-4.38v-1.7Z" style="fill:#ebebeb"></path><path d="M259.88,289.46c0-5.92,3.11-9.46,7.41-9.46s7.44,3.54,7.44,9.46-3.13,9.46-7.44,9.46S259.88,295.39,259.88,289.46Zm12.89,0c0-5-2.24-7.7-5.48-7.7s-5.47,2.73-5.47,7.7,2.23,7.71,5.47,7.71S272.77,294.43,272.77,289.46Z" style="fill:#ebebeb"></path><path d="M277.46,289.46c0-5.92,3.11-9.46,7.41-9.46s7.44,3.54,7.44,9.46-3.13,9.46-7.44,9.46S277.46,295.39,277.46,289.46Zm12.89,0c0-5-2.23-7.7-5.48-7.7s-5.47,2.73-5.47,7.7,2.23,7.71,5.47,7.71S290.35,294.43,290.35,289.46Z" style="fill:#ebebeb"></path><path d="M300.15,280.16v18.6h-1.92v-16.9h-4.38v-1.7Z" style="fill:#ebebeb"></path><path d="M304.58,289.46c0-5.92,3.11-9.46,7.41-9.46s7.44,3.54,7.44,9.46-3.13,9.46-7.44,9.46S304.58,295.39,304.58,289.46Zm12.89,0c0-5-2.24-7.7-5.48-7.7s-5.47,2.73-5.47,7.7,2.23,7.71,5.47,7.71S317.47,294.43,317.47,289.46Z" style="fill:#ebebeb"></path><path d="M327.26,280.16v18.6h-1.91v-16.9H321v-1.7Z" style="fill:#ebebeb"></path><path d="M336.85,280.16v18.6h-1.91v-16.9h-4.39v-1.7Z" style="fill:#ebebeb"></path><path d="M341.28,289.46c0-5.92,3.11-9.46,7.42-9.46s7.43,3.54,7.43,9.46-3.13,9.46-7.43,9.46S341.28,295.39,341.28,289.46Zm12.89,0c0-5-2.23-7.7-5.47-7.7s-5.48,2.73-5.48,7.7,2.23,7.71,5.48,7.71S354.17,294.43,354.17,289.46Z" style="fill:#ebebeb"></path><path d="M364,280.16v18.6h-1.92v-16.9h-4.38v-1.7Z" style="fill:#ebebeb"></path><path d="M278.19,315c0-5.93,3.11-9.46,7.41-9.46S293,309.05,293,315s-3.13,9.46-7.44,9.46S278.19,320.9,278.19,315Zm12.88,0c0-5-2.23-7.71-5.47-7.71s-5.47,2.74-5.47,7.71,2.23,7.7,5.47,7.7S291.07,320,291.07,315Z" style="fill:#ebebeb"></path><path d="M300.87,305.68v18.6H299v-16.9h-4.39v-1.7Z" style="fill:#ebebeb"></path><path d="M310.46,305.68v18.6h-1.91v-16.9h-4.39v-1.7Z" style="fill:#ebebeb"></path><path d="M320.05,305.68v18.6h-1.92v-16.9h-4.38v-1.7Z" style="fill:#ebebeb"></path><path d="M324.48,315c0-5.93,3.11-9.46,7.41-9.46s7.44,3.53,7.44,9.46-3.13,9.46-7.44,9.46S324.48,320.9,324.48,315Zm12.89,0c0-5-2.24-7.71-5.48-7.71s-5.47,2.74-5.47,7.71,2.23,7.7,5.47,7.7S337.37,320,337.37,315Z" style="fill:#ebebeb"></path><path d="M347.16,305.68v18.6h-1.91v-16.9h-4.38v-1.7Z" style="fill:#ebebeb"></path><path d="M162.15,360.67c0-5.93,3.11-9.46,7.41-9.46s7.44,3.53,7.44,9.46-3.13,9.46-7.44,9.46S162.15,366.59,162.15,360.67Zm12.89,0c0-5-2.23-7.71-5.48-7.71s-5.47,2.74-5.47,7.71,2.23,7.7,5.47,7.7S175,365.64,175,360.67Z" style="fill:#ebebeb"></path><path d="M179.73,360.67c0-5.93,3.11-9.46,7.42-9.46s7.43,3.53,7.43,9.46-3.13,9.46-7.43,9.46S179.73,366.59,179.73,360.67Zm12.89,0c0-5-2.23-7.71-5.47-7.71s-5.48,2.74-5.48,7.71,2.23,7.7,5.48,7.7S192.62,365.64,192.62,360.67Z" style="fill:#ebebeb"></path><path d="M202.42,351.37V370H200.5v-16.9h-4.38v-1.7Z" style="fill:#ebebeb"></path><path d="M206.85,360.67c0-5.93,3.11-9.46,7.41-9.46s7.44,3.53,7.44,9.46-3.13,9.46-7.44,9.46S206.85,366.59,206.85,360.67Zm12.89,0c0-5-2.24-7.71-5.48-7.71s-5.47,2.74-5.47,7.71,2.23,7.7,5.47,7.7S219.74,365.64,219.74,360.67Z" style="fill:#ebebeb"></path><path d="M229.53,351.37V370h-1.91v-16.9h-4.38v-1.7Z" style="fill:#ebebeb"></path><path d="M143.84,387.05c0-5.92,3.11-9.45,7.42-9.45s7.44,3.53,7.44,9.45-3.14,9.46-7.44,9.46S143.84,393,143.84,387.05Zm12.89,0c0-5-2.23-7.7-5.47-7.7s-5.48,2.74-5.48,7.7,2.24,7.71,5.48,7.71S156.73,392,156.73,387.05Z" style="fill:#ebebeb"></path><path d="M161.43,387.05c0-5.92,3.11-9.45,7.41-9.45s7.44,3.53,7.44,9.45-3.13,9.46-7.44,9.46S161.43,393,161.43,387.05Zm12.88,0c0-5-2.23-7.7-5.47-7.7s-5.47,2.74-5.47,7.7,2.23,7.71,5.47,7.71S174.31,392,174.31,387.05Z" style="fill:#ebebeb"></path><path d="M184.11,377.75v18.6H182.2v-16.9h-4.39v-1.7Z" style="fill:#ebebeb"></path><path d="M188.54,387.05c0-5.92,3.11-9.45,7.42-9.45s7.44,3.53,7.44,9.45-3.14,9.46-7.44,9.46S188.54,393,188.54,387.05Zm12.89,0c0-5-2.23-7.7-5.47-7.7s-5.48,2.74-5.48,7.7,2.24,7.71,5.48,7.71S201.43,392,201.43,387.05Z" style="fill:#ebebeb"></path><path d="M211.23,377.75v18.6h-1.92v-16.9h-4.38v-1.7Z" style="fill:#ebebeb"></path><path d="M162.15,412.57c0-5.93,3.11-9.46,7.42-9.46s7.44,3.53,7.44,9.46-3.14,9.46-7.44,9.46S162.15,418.5,162.15,412.57Zm12.89,0c0-5-2.23-7.71-5.47-7.71s-5.48,2.74-5.48,7.71,2.23,7.71,5.48,7.71S175,417.54,175,412.57Z" style="fill:#ebebeb"></path><path d="M184.84,403.27v18.6h-1.92V405h-4.38v-1.7Z" style="fill:#ebebeb"></path><path d="M194.43,403.27v18.6h-1.92V405h-4.38v-1.7Z" style="fill:#ebebeb"></path><path d="M204,403.27v18.6H202.1V405h-4.38v-1.7Z" style="fill:#ebebeb"></path><path d="M208.44,412.57c0-5.93,3.11-9.46,7.42-9.46s7.44,3.53,7.44,9.46-3.14,9.46-7.44,9.46S208.44,418.5,208.44,412.57Zm12.89,0c0-5-2.23-7.71-5.47-7.71s-5.48,2.74-5.48,7.71,2.24,7.71,5.48,7.71S221.33,417.54,221.33,412.57Z" style="fill:#ebebeb"></path><path d="M231.13,403.27v18.6h-1.91V405h-4.39v-1.7Z" style="fill:#ebebeb"></path><path d="M236.63,360.67c0-5.93,3.11-9.46,7.42-9.46s7.43,3.53,7.43,9.46-3.13,9.46-7.43,9.46S236.63,366.59,236.63,360.67Zm12.89,0c0-5-2.23-7.71-5.47-7.71s-5.48,2.74-5.48,7.71,2.23,7.7,5.48,7.7S249.52,365.64,249.52,360.67Z" style="fill:#ebebeb"></path><path d="M254.21,360.67c0-5.93,3.11-9.46,7.42-9.46s7.44,3.53,7.44,9.46-3.14,9.46-7.44,9.46S254.21,366.59,254.21,360.67Zm12.89,0c0-5-2.23-7.71-5.47-7.71s-5.48,2.74-5.48,7.71,2.23,7.7,5.48,7.7S267.1,365.64,267.1,360.67Z" style="fill:#ebebeb"></path><path d="M276.9,351.37V370H275v-16.9H270.6v-1.7Z" style="fill:#ebebeb"></path><path d="M281.33,360.67c0-5.93,3.11-9.46,7.41-9.46s7.44,3.53,7.44,9.46-3.13,9.46-7.44,9.46S281.33,366.59,281.33,360.67Zm12.89,0c0-5-2.23-7.71-5.48-7.71s-5.47,2.74-5.47,7.71,2.23,7.7,5.47,7.7S294.22,365.64,294.22,360.67Z" style="fill:#ebebeb"></path><path d="M304,351.37V370H302.1v-16.9h-4.38v-1.7Z" style="fill:#ebebeb"></path><path d="M218.33,387.05c0-5.92,3.11-9.45,7.41-9.45s7.44,3.53,7.44,9.45-3.13,9.46-7.44,9.46S218.33,393,218.33,387.05Zm12.88,0c0-5-2.23-7.7-5.47-7.7s-5.47,2.74-5.47,7.7,2.23,7.71,5.47,7.71S231.21,392,231.21,387.05Z" style="fill:#ebebeb"></path><path d="M235.91,387.05c0-5.92,3.11-9.45,7.41-9.45s7.44,3.53,7.44,9.45-3.13,9.46-7.44,9.46S235.91,393,235.91,387.05Zm12.89,0c0-5-2.24-7.7-5.48-7.7s-5.47,2.74-5.47,7.7,2.23,7.71,5.47,7.71S248.8,392,248.8,387.05Z" style="fill:#ebebeb"></path><path d="M258.59,377.75v18.6h-1.91v-16.9H252.3v-1.7Z" style="fill:#ebebeb"></path><path d="M263,387.05c0-5.92,3.1-9.45,7.41-9.45s7.44,3.53,7.44,9.45-3.14,9.46-7.44,9.46S263,393,263,387.05Zm12.88,0c0-5-2.23-7.7-5.47-7.7s-5.47,2.74-5.47,7.7,2.23,7.71,5.47,7.71S275.91,392,275.91,387.05Z" style="fill:#ebebeb"></path><path d="M285.71,377.75v18.6H283.8v-16.9h-4.39v-1.7Z" style="fill:#ebebeb"></path><path d="M295.3,377.75v18.6h-1.92v-16.9H289v-1.7Z" style="fill:#ebebeb"></path><path d="M299.73,387.05c0-5.92,3.11-9.45,7.41-9.45s7.44,3.53,7.44,9.45-3.13,9.46-7.44,9.46S299.73,393,299.73,387.05Zm12.89,0c0-5-2.23-7.7-5.48-7.7s-5.47,2.74-5.47,7.7,2.23,7.71,5.47,7.71S312.62,392,312.62,387.05Z" style="fill:#ebebeb"></path><path d="M322.42,377.75v18.6H320.5v-16.9h-4.38v-1.7Z" style="fill:#ebebeb"></path><path d="M236.63,412.57c0-5.93,3.11-9.46,7.42-9.46s7.44,3.53,7.44,9.46-3.14,9.46-7.44,9.46S236.63,418.5,236.63,412.57Zm12.89,0c0-5-2.23-7.71-5.47-7.71s-5.48,2.74-5.48,7.71,2.24,7.71,5.48,7.71S249.52,417.54,249.52,412.57Z" style="fill:#ebebeb"></path><path d="M259.32,403.27v18.6h-1.91V405H253v-1.7Z" style="fill:#ebebeb"></path><path d="M268.91,403.27v18.6H267V405h-4.38v-1.7Z" style="fill:#ebebeb"></path><path d="M278.5,403.27v18.6h-1.92V405H272.2v-1.7Z" style="fill:#ebebeb"></path><path d="M282.93,412.57c0-5.93,3.1-9.46,7.41-9.46s7.44,3.53,7.44,9.46-3.13,9.46-7.44,9.46S282.93,418.5,282.93,412.57Zm12.88,0c0-5-2.23-7.71-5.47-7.71s-5.47,2.74-5.47,7.71,2.23,7.71,5.47,7.71S295.81,417.54,295.81,412.57Z" style="fill:#ebebeb"></path><path d="M305.61,403.27v18.6H303.7V405h-4.39v-1.7Z" style="fill:#ebebeb"></path><path d="M562.27,77.2a28.23,28.23,0,0,0-.62-4.26,38,38,0,0,0-4.06-11.07,40.9,40.9,0,0,0-27.08-20.28,41.34,41.34,0,0,0-21.75,1.15,38.87,38.87,0,0,0-10.63,5.34A46,46,0,0,0,493.32,52a46.91,46.91,0,0,0-4.18,4.69,41.13,41.13,0,0,0-1.2,49,48.3,48.3,0,0,0,4,4.89,46.66,46.66,0,0,0,4.61,4.09,39.13,39.13,0,0,0,10.36,5.85,41.33,41.33,0,0,0,21.67,2.21,40.93,40.93,0,0,0,28-19,38.05,38.05,0,0,0,4.6-10.86,27.37,27.37,0,0,0,.82-4.21,16.86,16.86,0,0,0,.29-3.13,10.67,10.67,0,0,0,0-2.59,2.33,2.33,0,0,0-.19.83c-1.15-.38-8.51-.87-19.11-1.31v-.07a48.74,48.74,0,0,0-2.46-16.21,43.45,43.45,0,0,0,5.41-2.62l2-1c.59-.38,1.13-.77,1.65-1.13l2.59-1.86c.7-.52,1.22-.93,1.57-1.23a40.26,40.26,0,0,1,7.11,14.85,30.53,30.53,0,0,1,.81,4.14,21.43,21.43,0,0,1,.34,3.08,12.33,12.33,0,0,0,.29,2.57,10.94,10.94,0,0,0,.16-2.58A17.85,17.85,0,0,0,562.27,77.2ZM523.71,42.65a76.39,76.39,0,0,1,7.63,9.46A57.9,57.9,0,0,1,537.91,65a.17.17,0,0,0,0,0,47,47,0,0,1-15.54,2.25c.17-12.33.1-21.7-.18-24.69C522.71,42.61,523.21,42.63,523.71,42.65Zm11.34,54.59c-1-.32-2-.57-3.1-.87L530.34,96c-.55-.12-1.11-.19-1.68-.29l-3.44-.53L521.74,95c.11-3.47.22-7.15.32-11,6.71.16,13,.27,18.58.32a46.62,46.62,0,0,1-3.12,13.85C536.72,97.84,535.9,97.53,535.05,97.24Zm-15.81,23.93a75.51,75.51,0,0,1-7.66-9.5,58,58,0,0,1-6.26-12.06,47.83,47.83,0,0,1,14.29-2.44c-.16,12-.09,21.08.19,24Zm.4-26.22a45.41,45.41,0,0,0-15,2.84,49.24,49.24,0,0,1-2.48-14.42c5.27.21,11.26.4,17.66.57C519.76,87.77,519.69,91.47,519.64,95Zm.26-13.23c-6.42-.15-12.43-.24-17.72-.29a45.93,45.93,0,0,1,3.1-15.51c1.1.46,2.26.9,3.47,1.32,1,.32,2,.57,3.1.86l1.61.43c.55.11,1.11.19,1.68.28l3.44.54,1.67.08C520.12,73.3,520,77.43,519.9,81.72Zm1.81-39.11c-.43,3-1,12.33-1.38,24.61l-1.53-.06-3.29-.49-1.61-.24-1.54-.38c-1-.27-2-.48-3-.76-1.17-.37-2.28-.76-3.36-1.17a61.15,61.15,0,0,1,7.15-12.34,88.8,88.8,0,0,1,8-9.16ZM494.81,53.5a43.74,43.74,0,0,1,4.54-3.68,39.15,39.15,0,0,1,20.85-7.18,51,51,0,0,0-8.28,8.18,55.85,55.85,0,0,0-7.83,12.57q-2.55-1.05-4.64-2.15a79.43,79.43,0,0,1-7.58-4.56C492.8,55.57,493.82,54.55,494.81,53.5ZM490.86,58c.21-.3.44-.58.66-.86a34.76,34.76,0,0,0,7.16,5.49,45.09,45.09,0,0,0,4.69,2.49A46,46,0,0,0,500,81.41h0c-8.51,0-14.81,0-17.27.25,0-.23,0-.45,0-.68A39.45,39.45,0,0,1,490.86,58ZM482.7,82.19c2.48.34,8.77.73,17.27,1.09a48.8,48.8,0,0,0,2.78,15.26,43.87,43.87,0,0,0-4.85,2.4l-2,1c-.6.37-1.13.77-1.65,1.12-1,.7-1.82,1.32-2.6,1.87l-1,.75c-.33-.44-.65-.88-.95-1.35A39.38,39.38,0,0,1,482.7,82.19Zm15.11,30.74a44.38,44.38,0,0,1-4.35-3.91c-.79-.92-1.6-1.83-2.37-2.79l1.05-.54,2.75-1.52c.54-.29,1.09-.64,1.7-1s1.32-.56,2-.87a51.59,51.59,0,0,1,4.8-2.06,54.31,54.31,0,0,0,6.9,12.3,47,47,0,0,0,8,8.53,36.48,36.48,0,0,1-10.7-2.57A36.92,36.92,0,0,1,497.81,112.93Zm22.48,8.31c.43-2.92.94-12,1.37-24l3.34.13,3.29.49,1.61.24,1.54.38c1,.26,2,.48,3,.76.8.25,1.57.52,2.33.79a60.62,60.62,0,0,1-7,12,88.88,88.88,0,0,1-8.08,9.27ZM545.08,114a39.29,39.29,0,0,1-16.83,6.88,46.18,46.18,0,0,1-5.71.43A50.82,50.82,0,0,0,531,113a56.14,56.14,0,0,0,7.68-12.27,55.89,55.89,0,0,1,5.67,2.55,82.8,82.8,0,0,1,7.58,4.55A40,40,0,0,1,545.08,114ZM562,84c-.06.4-.12.9-.19,1.51a21.54,21.54,0,0,1-.5,3.06,28.15,28.15,0,0,1-1,4.09,40.54,40.54,0,0,1-8,14.76,34.49,34.49,0,0,0-7.18-5.51A46,46,0,0,0,539.43,99a46.42,46.42,0,0,0,3.43-14.62C553.4,84.41,560.76,84.28,562,84Zm-21.3-1.63v0c-5.56-.21-11.89-.41-18.61-.58.1-4.27.18-8.39.24-12.25a44.85,44.85,0,0,0,16.18-2.61A49.28,49.28,0,0,1,540.73,82.33Zm10.93-23.54-2.75,1.51c-.54.3-1.09.64-1.7,1l-2,.88a52.11,52.11,0,0,1-5.34,2.25l0-.1a54.78,54.78,0,0,0-7.21-13.09,47,47,0,0,0-8-8.5,44,44,0,0,1,5.49.69,39.37,39.37,0,0,1,16.49,7.69,39.94,39.94,0,0,1,6.81,6.83C553,58.1,552.41,58.39,551.66,58.79Z" style="fill:#ebebeb"></path><circle cx="105.4" cy="365.67" r="10.53" transform="translate(-269.96 428.3) rotate(-83.39)" style="fill:#e0e0e0"></circle><circle cx="81.43" cy="392.87" r="10.53" transform="translate(-240.62 153.58) rotate(-41.68)" style="fill:#e0e0e0"></circle><ellipse cx="71.32" cy="349.39" rx="10.53" ry="11.46" transform="translate(-77.3 25.24) rotate(-13.09)" style="fill:#e0e0e0"></ellipse><path d="M74.65,350c.29-.75,8,1.55,17.24,5.13s16.49,7.09,16.2,7.84-8-1.55-17.24-5.13S74.36,350.75,74.65,350Z" style="fill:#e0e0e0"></path><path d="M83.75,393.09c-.62-.51,3.52-6.61,9.24-13.63s10.88-12.3,11.5-11.79-3.52,6.61-9.25,13.63S84.37,393.6,83.75,393.09Z" style="fill:#e0e0e0"></path><path d="M702.94,202a9.53,9.53,0,0,1-1.56.1l-4.45.09-16.38.17-54.06.15h-4.36V202c.06-20.19.12-38.3.16-51.48.06-6.47.12-11.72.16-15.47,0-1.75.07-3.14.09-4.19a7.2,7.2,0,0,1,.1-1.46,8.28,8.28,0,0,1,.1,1.46c0,1,0,2.44.09,4.19,0,3.75.09,9,.16,15.47,0,13.18.1,31.29.16,51.48l-.51-.51h3.85l54.06.15,16.38.16,4.45.09A8.68,8.68,0,0,1,702.94,202Z" style="fill:#e0e0e0"></path><path d="M694,147a20,20,0,0,1-2.4,2.29l-6.78,5.95c-5.75,5-13.75,11.83-22.61,19.34l-1.35,1.14-.34.29-.33-.31-10.06-9.34h.63L636,178.54,631.72,182a9.71,9.71,0,0,1-1.6,1.15,9.5,9.5,0,0,1,1.4-1.38l4.11-3.64,14.54-12.46.31-.28.31.29,10.11,9.3-.68,0,1.35-1.14c8.87-7.5,16.93-14.26,22.8-19.11l7-5.7A21.09,21.09,0,0,1,694,147Z" style="fill:#e0e0e0"></path><path d="M694,163.8c-.14,0-.27-1.9-.36-5s-.15-7.41-.15-12.2l.51.51h-.87c-5,0-9.52-.06-12.79-.15s-5.3-.22-5.3-.36,2-.27,5.3-.36,7.79-.15,12.79-.15h1.38v.51c0,4.79-.06,9.1-.15,12.2A25.81,25.81,0,0,1,694,163.8Z" style="fill:#e0e0e0"></path></g><g id="freepik--Desk--inject-22"><path d="M537.4,424.08c0,.14-72.71.26-162.39.26s-162.41-.12-162.41-.26,72.7-.26,162.41-.26S537.4,423.94,537.4,424.08Z" style="fill:#263238"></path></g><g id="freepik--device-2--inject-22"><path d="M685.38,322H567.48V317.6H681a4.39,4.39,0,0,1,4.39,4.39Z" style="fill:#455a64"></path><rect x="567.48" y="252.73" width="90.32" height="68.32" rx="3.34" style="fill:#455a64"></rect><rect x="571.25" y="255.98" width="82.78" height="60.84" style="fill:#fafafa"></rect><path d="M654,316.82s0-.38,0-1.12,0-1.83,0-3.25c0-2.85,0-7,0-12.34,0-10.62,0-25.82-.06-44.13l.11.09H571.25l.12-.1c0,22.09,0,42.91,0,60.84l-.11-.09,59.88,0,16.9,0h0l-16.87,0-60,0h-.1v-.09c0-17.93,0-38.75,0-60.84v-.1h.13l82.78,0h.1V256c0,18.33,0,33.55,0,44.19,0,5.31,0,9.47,0,12.32,0,1.41,0,2.5,0,3.23S654,316.82,654,316.82Z" style="fill:#263238"></path><path d="M641.65,272.36H637.3l-12,0-40.81,0,.1-.1v28.09l-.1-.1,40.53,0,11.92,0,3.2,0h0l-3.2,0-11.92,0-40.53,0h-.1V272.26h.1l40.81,0,12,0,3.23,0h1.12Z" style="fill:#e0e0e0"></path><path d="M641.65,277.09c0,.05-12.8.1-28.59.1s-28.59-.05-28.59-.1,12.8-.11,28.59-.11S641.65,277,641.65,277.09Z" style="fill:#e0e0e0"></path><path d="M641.23,280.85c0,.06-12.8.11-28.58.11s-28.59,0-28.59-.11,12.79-.1,28.59-.1S641.23,280.8,641.23,280.85Z" style="fill:#e0e0e0"></path><path d="M641.65,284.82c0,.06-12.8.11-28.59.11s-28.59-.05-28.59-.11,12.8-.1,28.59-.1S641.65,284.77,641.65,284.82Z" style="fill:#e0e0e0"></path><path d="M641.65,288.69c0,.06-12.8.11-28.59.11s-28.59-.05-28.59-.11,12.8-.1,28.59-.1S641.65,288.64,641.65,288.69Z" style="fill:#e0e0e0"></path><path d="M641.65,292.56c0,.06-12.8.1-28.59.1s-28.59,0-28.59-.1,12.8-.1,28.59-.1S641.65,292.51,641.65,292.56Z" style="fill:#e0e0e0"></path><path d="M584.47,296.43c0-.05,12.8-.1,28.59-.1s28.59.05,28.59.1-12.8.1-28.59.1S584.47,296.49,584.47,296.43Z" style="fill:#e0e0e0"></path><path d="M595.79,300.87s-.1-6.38-.1-14.25,0-14.26.1-14.26.1,6.38.1,14.26S595.85,300.87,595.79,300.87Z" style="fill:#e0e0e0"></path><path d="M607.26,300.87c-.06,0-.11-6.38-.11-14.25s.05-14.26.11-14.26.1,6.38.1,14.26S607.31,300.87,607.26,300.87Z" style="fill:#e0e0e0"></path><path d="M618.72,300.87c-.06,0-.1-6.38-.1-14.25s0-14.26.1-14.26.1,6.38.1,14.26S618.78,300.87,618.72,300.87Z" style="fill:#e0e0e0"></path><path d="M630.18,300.87s-.1-6.38-.1-14.25,0-14.26.1-14.26.11,6.38.11,14.26S630.24,300.87,630.18,300.87Z" style="fill:#e0e0e0"></path><path d="M641.65,300.87c-.06,0-.1-6.38-.1-14.25s0-14.26.1-14.26.1,6.38.1,14.26S641.7,300.87,641.65,300.87Z" style="fill:#e0e0e0"></path><path d="M641.65,277.09a4.18,4.18,0,0,1-.43.33l-1.29.91-4.79,3.31c-4.09,2.8-9.81,6.69-16.31,11.09l-.08.06-.09,0-4.87-1.64-6.6-2.23.18,0-11.49,7.7h0l-8.3,2.87-2.27.76-.6.19-.21.05.19-.1.59-.23,2.25-.84,8.24-3,0,0,11.44-7.77.08-.06.09,0,6.6,2.23,4.86,1.64-.17,0c6.5-4.39,12.25-8.24,16.38-11l4.86-3.21,1.33-.85A2.59,2.59,0,0,1,641.65,277.09Z" style="fill:#FF725E"></path><path d="M596.49,296.43a.7.7,0,1,1-.7-.7A.7.7,0,0,1,596.49,296.43Z" style="fill:#FF725E"></path><path d="M608,288.69a.7.7,0,1,1-.69-.69A.69.69,0,0,1,608,288.69Z" style="fill:#FF725E"></path><path d="M619.42,292.5a.7.7,0,0,1-1.4,0,.7.7,0,0,1,1.4,0Z" style="fill:#FF725E"></path><path d="M631,284.86a.7.7,0,1,1-.7-.7A.7.7,0,0,1,631,284.86Z" style="fill:#FF725E"></path><path d="M641.65,296.43s-.08,0-.22-.12l-.61-.38-2.32-1.49-8.4-5.54h.17l-11.44,7.69-.16.11-.11-.15-6-8.13-5.43-7.35.3,0-11.5,11.58,0,0h0l-8.52,2.77-2.33.73-.6.18a.68.68,0,0,1-.22.05l.2-.09.6-.22,2.3-.81,8.48-2.89-.06,0c3.16-3.22,7.07-7.21,11.43-11.64l.16-.17.14.19,5.44,7.34,6,8.13-.27,0,11.49-7.63.09-.06.08.06,8.33,5.65,2.27,1.57.59.42A1.5,1.5,0,0,1,641.65,296.43Z" style="fill:#455a64"></path><path d="M608,281a.7.7,0,1,1-.69-.7A.69.69,0,0,1,608,281Z" style="fill:#455a64"></path><path d="M596.49,292.56a.7.7,0,1,1-.7-.7A.7.7,0,0,1,596.49,292.56Z" style="fill:#455a64"></path><circle cx="618.72" cy="296.43" r="0.7" style="fill:#455a64"></circle><path d="M630.88,289.39a.7.7,0,1,1-.7-.7A.7.7,0,0,1,630.88,289.39Z" style="fill:#455a64"></path><path d="M591,303.65a3.34,3.34,0,0,1-1.11.1,3.25,3.25,0,0,1-1.1-.1,3,3,0,0,1,1.1-.1A3.05,3.05,0,0,1,591,303.65Z" style="fill:#e0e0e0"></path><path d="M602.72,303.65a6.1,6.1,0,0,1-2.2,0,6.1,6.1,0,0,1,2.2,0Z" style="fill:#e0e0e0"></path><path d="M614.44,303.65a3.25,3.25,0,0,1-1.1.1,3.34,3.34,0,0,1-1.11-.1,3.05,3.05,0,0,1,1.11-.1A3,3,0,0,1,614.44,303.65Z" style="fill:#e0e0e0"></path><path d="M626.16,303.65a3.34,3.34,0,0,1-1.11.1,3.25,3.25,0,0,1-1.1-.1,3,3,0,0,1,1.1-.1A3.05,3.05,0,0,1,626.16,303.65Z" style="fill:#e0e0e0"></path><path d="M637.87,303.65a6.1,6.1,0,0,1-2.2,0,6.1,6.1,0,0,1,2.2,0Z" style="fill:#e0e0e0"></path><path d="M582.86,300.29a2,2,0,0,1-.9.1,2,2,0,0,1-.89-.1,2,2,0,0,1,.89-.1A2,2,0,0,1,582.86,300.29Z" style="fill:#e0e0e0"></path><path d="M582.86,295.79a2,2,0,0,1-.9.1,2,2,0,0,1-.89-.1,2,2,0,0,1,.89-.1A2,2,0,0,1,582.86,295.79Z" style="fill:#e0e0e0"></path><path d="M582.86,291.29a2,2,0,0,1-.9.1,2,2,0,0,1-.89-.1,2,2,0,0,1,.89-.1A2,2,0,0,1,582.86,291.29Z" style="fill:#e0e0e0"></path><path d="M582.86,286.79a2,2,0,0,1-.9.1,2,2,0,0,1-.89-.1,2,2,0,0,1,.89-.1A2,2,0,0,1,582.86,286.79Z" style="fill:#e0e0e0"></path><path d="M582.86,282.29a2,2,0,0,1-.9.1,2,2,0,0,1-.89-.1,2,2,0,0,1,.89-.1A2,2,0,0,1,582.86,282.29Z" style="fill:#e0e0e0"></path><path d="M582.86,277.79a2,2,0,0,1-.9.1,2,2,0,0,1-.89-.1,2,2,0,0,1,.89-.1A2,2,0,0,1,582.86,277.79Z" style="fill:#e0e0e0"></path><path d="M582.86,273.29a2,2,0,0,1-.9.1,2,2,0,0,1-.89-.1,2,2,0,0,1,.89-.1A2,2,0,0,1,582.86,273.29Z" style="fill:#e0e0e0"></path><rect x="584.17" y="262.63" width="16.43" height="1.17" style="fill:#FF725E"></rect><path d="M629.94,266c0,.06-10.27.1-22.94.1s-22.94,0-22.94-.1,10.27-.1,22.94-.1S629.94,266,629.94,266Z" style="fill:#263238"></path><path d="M613.17,309.26c0,.06-6.26.11-14,.11s-14-.05-14-.11,6.26-.1,14-.1S613.17,309.21,613.17,309.26Z" style="fill:#263238"></path><path d="M591.91,311.38a44.6,44.6,0,0,1-6,0,44.6,44.6,0,0,1,6,0Z" style="fill:#263238"></path><path d="M638.53,308.89c0,.06-4.45.1-9.94.1s-10,0-10-.1,4.45-.1,10-.1S638.53,308.84,638.53,308.89Z" style="fill:#263238"></path><path d="M627.72,310.26a48.41,48.41,0,0,1-6.22,0,48.41,48.41,0,0,1,6.22,0Z" style="fill:#263238"></path></g><g id="freepik--device-1--inject-22"><rect x="167.73" y="144.94" width="55.19" height="77.66" rx="2.06" transform="translate(47.52 -40.01) rotate(13.3)" style="fill:#263238"></rect><rect x="171.48" y="149.72" width="49.82" height="58.03" transform="translate(46.39 -40.39) rotate(13.3)" style="fill:#fafafa"></rect><path d="M192.2,215.19a4.18,4.18,0,1,1-3.11-5A4.18,4.18,0,0,1,192.2,215.19Z" style="fill:#455a64"></path><path d="M205.14,177.54c.16.24-4.17,3.34-9.67,6.91s-10.08,6.28-10.24,6,4.17-3.33,9.67-6.91S205,177.3,205.14,177.54Z" style="fill:#263238"></path><path d="M202.23,174.17c.11.26-2.29,2-5.37,3.85S191.15,181.2,191,181s2.25-2,5.37-3.86S202.11,173.91,202.23,174.17Z" style="fill:#263238"></path></g><g id="freepik--Cloud--inject-22"><path d="M176.51,295.46a20.38,20.38,0,0,0-35.66-7.64,16,16,0,0,0-2-.13,16.95,16.95,0,0,0,0,33.9h36.9a13.07,13.07,0,0,0,.72-26.13Z" style="fill:#FF725E"></path></g><g id="freepik--Wifi--inject-22"><path d="M172.59,439a4.35,4.35,0,1,1-4.33-4.37A4.35,4.35,0,0,1,172.59,439Z" style="fill:#455a64"></path><path d="M159.54,433.36a12.07,12.07,0,0,1,17.45-.23c2.22,2.24,5.7-1.2,3.48-3.44a17,17,0,0,0-24.37.2c-2.17,2.28,1.27,5.76,3.44,3.47Z" style="fill:#455a64"></path><path d="M144.76,413.11c6.62-5.72,14.52-9.32,23.36-9.34A34.68,34.68,0,0,1,192,412.89c2.29,2.15,5.78-1.29,3.47-3.45a39.78,39.78,0,0,0-27.28-10.57c-10.18,0-19.23,4.19-26.83,10.76-2.39,2.07,1.07,5.53,3.44,3.48Z" style="fill:#455a64"></path><path d="M150.6,424.33a24,24,0,0,1,35.18-.5c2.2,2.26,5.67-1.18,3.47-3.44a28.81,28.81,0,0,0-42.1.47c-2.13,2.31,1.3,5.79,3.45,3.47Z" style="fill:#455a64"></path></g><g id="freepik--Server--inject-22"><polygon points="662.53 444.55 648.25 444.59 648.25 421.02 662.53 420.98 662.53 444.55" style="fill:#263238"></polygon><rect x="553.94" y="421.02" width="95" height="23.57" style="fill:#455a64"></rect><rect x="558.16" y="425.87" width="18.7" height="2.88" style="fill:#263238"></rect><rect x="558.16" y="430.83" width="18.7" height="2.88" style="fill:#263238"></rect><path d="M584.26,427.61a1.07,1.07,0,1,1-1.07-1.07A1.07,1.07,0,0,1,584.26,427.61Z" style="fill:#263238"></path><path d="M589,427.61a1.08,1.08,0,1,1-1.08-1.07A1.08,1.08,0,0,1,589,427.61Z" style="fill:#263238"></path><path d="M593.73,427.61a1.07,1.07,0,1,1-1.07-1.07A1.07,1.07,0,0,1,593.73,427.61Z" style="fill:#263238"></path><path d="M598.47,427.61a1.08,1.08,0,1,1-1.08-1.07A1.08,1.08,0,0,1,598.47,427.61Z" style="fill:#263238"></path><path d="M635.16,427.61a1.08,1.08,0,1,1-1.07-1.07A1.07,1.07,0,0,1,635.16,427.61Z" style="fill:#263238"></path><path d="M640,427.61a1.08,1.08,0,1,1-1.08-1.07A1.08,1.08,0,0,1,640,427.61Z" style="fill:#263238"></path><path d="M603.2,427.61a1.07,1.07,0,1,1-1.07-1.07A1.07,1.07,0,0,1,603.2,427.61Z" style="fill:#263238"></path><path d="M626.45,427.61a1.07,1.07,0,1,1-1.07-1.07A1.07,1.07,0,0,1,626.45,427.61Z" style="fill:#263238"></path><path d="M607.94,427.61a1.08,1.08,0,1,1-1.08-1.07A1.08,1.08,0,0,1,607.94,427.61Z" style="fill:#f5f5f5"></path><path d="M612.67,427.61a1.07,1.07,0,1,1-1.07-1.07A1.07,1.07,0,0,1,612.67,427.61Z" style="fill:#f5f5f5"></path><path d="M622.28,427.61a1.08,1.08,0,1,1-1.07-1.07A1.07,1.07,0,0,1,622.28,427.61Z" style="fill:#f5f5f5"></path><path d="M643.92,427.61a1.08,1.08,0,1,1-1.08-1.07A1.08,1.08,0,0,1,643.92,427.61Z" style="fill:#f5f5f5"></path><path d="M617.41,427.61a1.08,1.08,0,1,1-1.08-1.07A1.08,1.08,0,0,1,617.41,427.61Z" style="fill:#FF725E"></path><path d="M631,427.61a1.07,1.07,0,1,1-1.07-1.07A1.07,1.07,0,0,1,631,427.61Z" style="fill:#FF725E"></path><path d="M641.77,432.79a1.08,1.08,0,1,1,1.07,1.07A1.07,1.07,0,0,1,641.77,432.79Z" style="fill:#263238"></path><path d="M637,432.79a1.08,1.08,0,1,1,1.08,1.07A1.08,1.08,0,0,1,637,432.79Z" style="fill:#263238"></path><path d="M632.3,432.79a1.08,1.08,0,1,1,1.07,1.07A1.07,1.07,0,0,1,632.3,432.79Z" style="fill:#263238"></path><path d="M627.56,432.79a1.08,1.08,0,1,1,1.08,1.07A1.08,1.08,0,0,1,627.56,432.79Z" style="fill:#263238"></path><path d="M590.87,432.79a1.08,1.08,0,1,1,1.08,1.07A1.08,1.08,0,0,1,590.87,432.79Z" style="fill:#263238"></path><path d="M586,432.79a1.08,1.08,0,1,1,1.08,1.07A1.08,1.08,0,0,1,586,432.79Z" style="fill:#263238"></path><path d="M622.83,432.79a1.08,1.08,0,1,1,1.07,1.07A1.07,1.07,0,0,1,622.83,432.79Z" style="fill:#263238"></path><path d="M599.58,432.79a1.07,1.07,0,1,1,1.07,1.07A1.07,1.07,0,0,1,599.58,432.79Z" style="fill:#263238"></path><path d="M618.09,432.79a1.08,1.08,0,1,1,1.08,1.07A1.08,1.08,0,0,1,618.09,432.79Z" style="fill:#f5f5f5"></path><path d="M613.36,432.79a1.08,1.08,0,1,1,1.07,1.07A1.07,1.07,0,0,1,613.36,432.79Z" style="fill:#f5f5f5"></path><path d="M603.75,432.79a1.08,1.08,0,1,1,1.08,1.07A1.08,1.08,0,0,1,603.75,432.79Z" style="fill:#f5f5f5"></path><path d="M582.12,432.79a1.07,1.07,0,1,1,1.07,1.07A1.07,1.07,0,0,1,582.12,432.79Z" style="fill:#f5f5f5"></path><path d="M608.62,432.79a1.08,1.08,0,1,1,1.08,1.07A1.08,1.08,0,0,1,608.62,432.79Z" style="fill:#FF725E"></path><path d="M595.07,432.79a1.07,1.07,0,1,1,1.07,1.07A1.07,1.07,0,0,1,595.07,432.79Z" style="fill:#FF725E"></path><path d="M584.26,437.39a1.07,1.07,0,1,1-1.07-1.08A1.07,1.07,0,0,1,584.26,437.39Z" style="fill:#263238"></path><path d="M589,437.39a1.08,1.08,0,1,1-1.08-1.08A1.07,1.07,0,0,1,589,437.39Z" style="fill:#263238"></path><circle cx="592.66" cy="437.39" r="1.07" style="fill:#263238"></circle><path d="M598.47,437.39a1.08,1.08,0,1,1-1.08-1.08A1.07,1.07,0,0,1,598.47,437.39Z" style="fill:#263238"></path><circle cx="634.09" cy="437.39" r="1.07" style="fill:#263238"></circle><circle cx="638.91" cy="437.39" r="1.07" style="fill:#263238"></circle><circle cx="602.13" cy="437.39" r="1.07" style="fill:#263238"></circle><path d="M626.45,437.39a1.07,1.07,0,1,1-1.07-1.08A1.07,1.07,0,0,1,626.45,437.39Z" style="fill:#263238"></path><path d="M607.94,437.39a1.08,1.08,0,1,1-1.08-1.08A1.07,1.07,0,0,1,607.94,437.39Z" style="fill:#f5f5f5"></path><path d="M612.67,437.39a1.07,1.07,0,1,1-1.07-1.08A1.07,1.07,0,0,1,612.67,437.39Z" style="fill:#f5f5f5"></path><path d="M622.28,437.39a1.08,1.08,0,1,1-1.07-1.08A1.07,1.07,0,0,1,622.28,437.39Z" style="fill:#f5f5f5"></path><circle cx="642.84" cy="437.39" r="1.07" style="fill:#f5f5f5"></circle><circle cx="616.33" cy="437.39" r="1.07" style="fill:#FF725E"></circle><circle cx="629.89" cy="437.39" r="1.07" style="fill:#FF725E"></circle><polygon points="662.53 415.82 648.25 415.86 648.25 392.3 662.53 392.26 662.53 415.82" style="fill:#263238"></polygon><rect x="553.94" y="392.29" width="95" height="23.57" style="fill:#455a64"></rect><rect x="558.16" y="397.15" width="18.7" height="2.88" style="fill:#263238"></rect><rect x="558.16" y="402.1" width="18.7" height="2.88" style="fill:#263238"></rect><path d="M584.26,398.89a1.07,1.07,0,1,1-1.07-1.08A1.07,1.07,0,0,1,584.26,398.89Z" style="fill:#263238"></path><path d="M589,398.89a1.08,1.08,0,1,1-1.08-1.08A1.07,1.07,0,0,1,589,398.89Z" style="fill:#263238"></path><path d="M593.73,398.89a1.07,1.07,0,1,1-1.07-1.08A1.07,1.07,0,0,1,593.73,398.89Z" style="fill:#263238"></path><path d="M598.47,398.89a1.08,1.08,0,1,1-1.08-1.08A1.07,1.07,0,0,1,598.47,398.89Z" style="fill:#263238"></path><path d="M635.16,398.89a1.08,1.08,0,1,1-1.07-1.08A1.07,1.07,0,0,1,635.16,398.89Z" style="fill:#263238"></path><path d="M640,398.89a1.08,1.08,0,1,1-1.08-1.08A1.07,1.07,0,0,1,640,398.89Z" style="fill:#263238"></path><path d="M603.2,398.89a1.07,1.07,0,1,1-1.07-1.08A1.07,1.07,0,0,1,603.2,398.89Z" style="fill:#263238"></path><path d="M626.45,398.89a1.07,1.07,0,1,1-1.07-1.08A1.07,1.07,0,0,1,626.45,398.89Z" style="fill:#263238"></path><path d="M607.94,398.89a1.08,1.08,0,1,1-1.08-1.08A1.07,1.07,0,0,1,607.94,398.89Z" style="fill:#f5f5f5"></path><path d="M612.67,398.89a1.07,1.07,0,1,1-1.07-1.08A1.07,1.07,0,0,1,612.67,398.89Z" style="fill:#f5f5f5"></path><path d="M622.28,398.89a1.08,1.08,0,1,1-1.07-1.08A1.07,1.07,0,0,1,622.28,398.89Z" style="fill:#f5f5f5"></path><path d="M643.92,398.89a1.08,1.08,0,1,1-1.08-1.08A1.07,1.07,0,0,1,643.92,398.89Z" style="fill:#f5f5f5"></path><path d="M617.41,398.89a1.08,1.08,0,1,1-1.08-1.08A1.07,1.07,0,0,1,617.41,398.89Z" style="fill:#FF725E"></path><path d="M631,398.89a1.07,1.07,0,1,1-1.07-1.08A1.07,1.07,0,0,1,631,398.89Z" style="fill:#FF725E"></path><circle cx="642.84" cy="404.06" r="1.07" style="fill:#263238"></circle><path d="M637,404.06a1.08,1.08,0,1,1,1.08,1.07A1.08,1.08,0,0,1,637,404.06Z" style="fill:#263238"></path><path d="M632.3,404.06a1.08,1.08,0,1,1,1.07,1.07A1.07,1.07,0,0,1,632.3,404.06Z" style="fill:#263238"></path><path d="M627.56,404.06a1.08,1.08,0,1,1,1.08,1.07A1.08,1.08,0,0,1,627.56,404.06Z" style="fill:#263238"></path><path d="M590.87,404.06a1.08,1.08,0,1,1,1.08,1.07A1.07,1.07,0,0,1,590.87,404.06Z" style="fill:#263238"></path><path d="M586,404.06a1.08,1.08,0,1,1,1.08,1.07A1.07,1.07,0,0,1,586,404.06Z" style="fill:#263238"></path><circle cx="623.9" cy="404.06" r="1.07" style="fill:#263238"></circle><path d="M599.58,404.06a1.07,1.07,0,1,1,1.07,1.07A1.07,1.07,0,0,1,599.58,404.06Z" style="fill:#263238"></path><path d="M618.09,404.06a1.08,1.08,0,1,1,1.08,1.07A1.08,1.08,0,0,1,618.09,404.06Z" style="fill:#f5f5f5"></path><path d="M613.36,404.06a1.08,1.08,0,1,1,1.07,1.07A1.07,1.07,0,0,1,613.36,404.06Z" style="fill:#f5f5f5"></path><circle cx="604.83" cy="404.06" r="1.07" style="fill:#f5f5f5"></circle><path d="M582.12,404.06a1.07,1.07,0,1,1,1.07,1.07A1.07,1.07,0,0,1,582.12,404.06Z" style="fill:#f5f5f5"></path><circle cx="609.7" cy="404.06" r="1.07" style="fill:#FF725E"></circle><circle cx="596.14" cy="404.06" r="1.07" style="fill:#FF725E"></circle><path d="M584.26,408.66a1.07,1.07,0,1,1-1.07-1.07A1.07,1.07,0,0,1,584.26,408.66Z" style="fill:#263238"></path><path d="M589,408.66a1.08,1.08,0,1,1-1.08-1.07A1.07,1.07,0,0,1,589,408.66Z" style="fill:#263238"></path><path d="M593.73,408.66a1.07,1.07,0,1,1-1.07-1.07A1.07,1.07,0,0,1,593.73,408.66Z" style="fill:#263238"></path><path d="M598.47,408.66a1.08,1.08,0,1,1-1.08-1.07A1.07,1.07,0,0,1,598.47,408.66Z" style="fill:#263238"></path><path d="M635.16,408.66a1.08,1.08,0,1,1-1.07-1.07A1.07,1.07,0,0,1,635.16,408.66Z" style="fill:#263238"></path><path d="M640,408.66a1.08,1.08,0,1,1-1.08-1.07A1.07,1.07,0,0,1,640,408.66Z" style="fill:#263238"></path><path d="M603.2,408.66a1.07,1.07,0,1,1-1.07-1.07A1.07,1.07,0,0,1,603.2,408.66Z" style="fill:#263238"></path><path d="M626.45,408.66a1.07,1.07,0,1,1-1.07-1.07A1.07,1.07,0,0,1,626.45,408.66Z" style="fill:#263238"></path><path d="M607.94,408.66a1.08,1.08,0,1,1-1.08-1.07A1.07,1.07,0,0,1,607.94,408.66Z" style="fill:#f5f5f5"></path><path d="M612.67,408.66a1.07,1.07,0,1,1-1.07-1.07A1.07,1.07,0,0,1,612.67,408.66Z" style="fill:#f5f5f5"></path><path d="M622.28,408.66a1.08,1.08,0,1,1-1.07-1.07A1.07,1.07,0,0,1,622.28,408.66Z" style="fill:#f5f5f5"></path><path d="M643.92,408.66a1.08,1.08,0,1,1-1.08-1.07A1.07,1.07,0,0,1,643.92,408.66Z" style="fill:#f5f5f5"></path><path d="M617.41,408.66a1.08,1.08,0,1,1-1.08-1.07A1.07,1.07,0,0,1,617.41,408.66Z" style="fill:#FF725E"></path><path d="M631,408.66a1.07,1.07,0,1,1-1.07-1.07A1.07,1.07,0,0,1,631,408.66Z" style="fill:#FF725E"></path></g><g id="freepik--Padlock--inject-22"><path d="M565.66,160.27l-.82-4.33a14.48,14.48,0,0,0-28.37,5.77l.84,4.42a8.09,8.09,0,0,0-5.16,9.22l5.21,25.5a8.09,8.09,0,0,0,9.55,6.31l26.47-5.41a8.1,8.1,0,0,0,6.31-9.56l-5.21-25.49A8.1,8.1,0,0,0,565.66,160.27Zm-4.81,29.16-6.92,1.42.06-5.22a4.31,4.31,0,1,1,4.55-1C559.43,186.45,560.85,189.43,560.85,189.43Zm1.75-28.57-22.25,4.55-.82-4.3a11.36,11.36,0,0,1,22.25-4.57Z" style="fill:#FF725E"></path></g><g id="freepik--Character--inject-22"><path d="M364.9,79.09A33.33,33.33,0,0,1,427,74.33c5.41,11.39,4.66,26.19,14.09,34.57,6.46,5.75,16.17,6.78,22.47,12.71,13.33,12.55,4.16,38.77,18.37,50.32a75.43,75.43,0,0,1-32.28,13.85,20.75,20.75,0,0,0-5.25-10.66c2.19,6.82-1.87,14.42-7.77,18.48s-13.24,5.34-20.34,6.3c-17.11,2.3-34.76,3.25-51.45-1.19s-32.43-15-39.71-30.63c-1.85-4-3.23-8.33-6.34-11.4-3.38-3.35-8.23-4.6-12.49-6.71a33.14,33.14,0,0,1-17.77-32.22c11.2-.22,19.31-10.64,24.25-20.69s9.07-21.44,18.52-27.44a24.53,24.53,0,0,1,36.42,13" style="fill:#263238"></path><path d="M337.51,102.44l-.07-9.4L394,83c17.43-1.63,36,16,36.93,33.53,1,19.42,1.44,43.18-1,57.63-5,29.07-27.34,32.5-27.34,32.5l-.76,35.58-31.44,87.44L336.51,233.8Z" style="fill:#ffbe9d"></path><path d="M420.36,139.65a3.73,3.73,0,0,1-3.64,3.72,3.56,3.56,0,0,1-3.81-3.41,3.73,3.73,0,0,1,3.64-3.73A3.56,3.56,0,0,1,420.36,139.65Z" style="fill:#263238"></path><path d="M424.66,128.8c-.47.48-3.28-1.64-7.3-1.68s-7,1.94-7.41,1.44c-.21-.22.27-1.1,1.56-2a10.33,10.33,0,0,1,5.95-1.75,9.82,9.82,0,0,1,5.8,1.95C424.48,127.7,424.89,128.59,424.66,128.8Z" style="fill:#263238"></path><path d="M384.6,139.65a3.73,3.73,0,0,1-3.64,3.72,3.57,3.57,0,0,1-3.81-3.41,3.72,3.72,0,0,1,3.64-3.73A3.56,3.56,0,0,1,384.6,139.65Z" style="fill:#263238"></path><path d="M385.14,129.08c-.47.48-3.27-1.65-7.29-1.69s-7,1.94-7.42,1.44c-.21-.22.27-1.09,1.57-2a10.2,10.2,0,0,1,5.94-1.76,9.93,9.93,0,0,1,5.8,2C385,128,385.37,128.86,385.14,129.08Z" style="fill:#263238"></path><path d="M399.37,159.06c0-.23,2.49-.63,6.54-1.1,1-.09,2-.29,2.18-1s-.16-1.85-.64-3.05q-1.41-3.73-2.94-7.85c-4.09-11.17-7-20.36-6.57-20.52s4.12,8.77,8.2,20q1.47,4.13,2.81,7.89c.38,1.17,1,2.5.49,4a2.6,2.6,0,0,1-1.71,1.48,7.38,7.38,0,0,1-1.74.22C401.91,159.3,399.38,159.29,399.37,159.06Z" style="fill:#263238"></path><path d="M402.57,206.72s-20.6,1-39.87-10.94c0,0,9.59,20.5,39.76,18.2Z" style="fill:#eb996e"></path><path d="M397.55,168.72a7.21,7.21,0,0,0-6.46-2.76,6.58,6.58,0,0,0-4.59,2.39,4.2,4.2,0,0,0-.38,4.79c1.07,1.53,3.33,1.91,5.26,1.39a15.16,15.16,0,0,0,5.17-3,4.49,4.49,0,0,0,1.16-1.18,1.33,1.33,0,0,0,0-1.49" style="fill:#eb996e"></path><path d="M387.51,161.7c.65,0,.61,4.33,4.31,7.47s8.34,2.72,8.37,3.33c.06.27-1.05.83-3,.86a10.87,10.87,0,0,1-7-2.53,9.41,9.41,0,0,1-3.33-6.26C386.71,162.74,387.21,161.67,387.51,161.7Z" style="fill:#263238"></path><path d="M386.18,117.74c-.41,1.09-4.41.52-9.14,1s-8.55,1.75-9.16.76c-.27-.47.4-1.49,1.95-2.53a15.39,15.39,0,0,1,6.82-2.29,15.17,15.17,0,0,1,7.12.92C385.5,116.35,386.36,117.22,386.18,117.74Z" style="fill:#263238"></path><path d="M424.7,115c-.72.9-3.47-.08-6.8-.16s-6.16.54-6.8-.43c-.27-.46.18-1.37,1.42-2.22a9.86,9.86,0,0,1,11,.47C424.64,113.63,425,114.58,424.7,115Z" style="fill:#263238"></path><path d="M393.11,84.18A31,31,0,0,1,371,110.56c-4.7,1.29-10.61,2.12-12.31,6.69-1.77,4.74,2.52,9.34,4.43,14a15.85,15.85,0,0,1-3.73,17.12c-2.57,2.41-5.92,3.9-8.36,6.45a15.64,15.64,0,0,0-3.82,13,22.45,22.45,0,0,0,6.43,12.21c-11,.15-22.85-6-26-16.54-1.86-6.29-.47-13,.68-19.5a246.08,246.08,0,0,0,3.75-44.68c0-2.54,0-5.29,1.51-7.32s4.09-2.78,6.5-3.42a367.18,367.18,0,0,1,47.84-9.34" style="fill:#263238"></path><path d="M386.77,79.67c2.82,5.7,5.71,11.51,10.14,16.07s10.75,7.75,17,6.86l-3.13-5.81a91.77,91.77,0,0,0,30.45,22.42c-5.34-11.17-10.86-22.6-19.8-31.16s-22.15-13.79-33.91-9.93" style="fill:#263238"></path><path d="M405.83,137.92a12.8,12.8,0,0,1,.35-4.07,16.41,16.41,0,0,1,6-9.3,16.65,16.65,0,0,1,7.06-3.21,16.91,16.91,0,0,1,8.87.69A17,17,0,0,1,436,127.9a16.81,16.81,0,0,1,0,20,15.83,15.83,0,0,1-3.59,3.58,15.6,15.6,0,0,1-4.29,2.29,16.69,16.69,0,0,1-15.93-2.52,16.43,16.43,0,0,1-6-9.29,12.8,12.8,0,0,1-.35-4.07c.12,0,0,1.47.69,4a16.43,16.43,0,0,0,6,8.87A16.14,16.14,0,0,0,427.81,153a15.15,15.15,0,0,0,4.06-2.2,14.88,14.88,0,0,0,3.39-3.42,16,16,0,0,0,0-19,14.88,14.88,0,0,0-3.39-3.42,15.15,15.15,0,0,0-4.06-2.2,16.28,16.28,0,0,0-8.45-.73,16,16,0,0,0-6.82,3,16.43,16.43,0,0,0-6,8.87C405.86,136.45,406,137.92,405.83,137.92Z" style="fill:#455a64"></path><path d="M362.22,137.92a12.56,12.56,0,0,1,.34-4.07,16.41,16.41,0,0,1,6-9.3,16.65,16.65,0,0,1,7.06-3.21,16.9,16.9,0,0,1,8.87.69,17,17,0,0,1,7.88,5.87,16.83,16.83,0,0,1,0,20,16,16,0,0,1-3.59,3.58,15.8,15.8,0,0,1-4.3,2.29,16.69,16.69,0,0,1-15.93-2.52,16.43,16.43,0,0,1-6-9.29,12.56,12.56,0,0,1-.34-4.07,38.88,38.88,0,0,0,.68,4,16.43,16.43,0,0,0,6,8.87A16.15,16.15,0,0,0,384.19,153a16.14,16.14,0,0,0,7.45-5.62,16,16,0,0,0,0-19,16.14,16.14,0,0,0-7.45-5.62,16.28,16.28,0,0,0-8.45-.73,16,16,0,0,0-6.81,3,16.4,16.4,0,0,0-6,8.87A38.74,38.74,0,0,0,362.22,137.92Z" style="fill:#455a64"></path><path d="M395,134.25c-.08-.07.36-.73,1.41-1.43a7.56,7.56,0,0,1,9.18.78c.92.86,1.24,1.59,1.15,1.64s-.6-.48-1.55-1.15a8.19,8.19,0,0,0-8.47-.71C395.69,133.88,395.11,134.35,395,134.25Z" style="fill:#455a64"></path><path d="M425.63,150.78c-.11-.26,3.29-1.26,6-4.43s3.33-6.62,3.6-6.55c.11,0,.13.9-.25,2.28a12.65,12.65,0,0,1-2.67,4.86,12.78,12.78,0,0,1-4.46,3.29A4.28,4.28,0,0,1,425.63,150.78Z" style="fill:#fff"></path><path d="M382.15,151.73c-.1-.26,3.3-1.26,6-4.43s3.33-6.62,3.6-6.55a4.3,4.3,0,0,1-.25,2.28,12.89,12.89,0,0,1-7.14,8.15A4.27,4.27,0,0,1,382.15,151.73Z" style="fill:#fff"></path><path d="M294.3,254.8l4.92,95.61s-2.35,41-3.13,46.18,19.28,27.83,19.28,27.83l150.13-.84-3.43-74.15-.24-114.25-59.37-13.75s1.89,14.86-26.4,12.8-39.55-14.68-39.55-14.68l-43.4,12.88Z" style="fill:#455a64"></path><path d="M244.41,336.06s20.75-68.54,25.72-78.69c7.58-15.5,17-23.65,23.65-25.19s6,118.26,6,118.26S252.64,348.4,244.41,336.06Z" style="fill:#455a64"></path><path d="M505.49,331.16c2.1-3.53-29.24-95-45.19-96v115.1Z" style="fill:#455a64"></path><path d="M453.36,265.21a8.86,8.86,0,0,1,.41,1.16c.25.83.6,1.95,1,3.37.78,3,1.93,7.26,2.85,12.66s1.78,11.88,2.36,19.11.89,15.18,1.14,23.53.42,16.3.81,23.53.82,13.72,1.14,19.19.51,9.89.61,12.95c0,1.48,0,2.66.07,3.53a6.49,6.49,0,0,1,0,1.23,10,10,0,0,1-.12-1.23c-.05-.87-.12-2-.21-3.52-.2-3.12-.48-7.52-.84-12.93s-.88-12-1.29-19.19-.62-15.19-.86-23.54-.55-16.29-1.09-23.5-1.31-13.68-2.2-19.07-1.92-9.7-2.61-12.68c-.39-1.43-.69-2.56-.91-3.4A7,7,0,0,1,453.36,265.21Z" style="fill:#263238"></path><path d="M293.11,272A39.15,39.15,0,0,1,292,268a92.15,92.15,0,0,0-3.17-9.65,94.94,94.94,0,0,0-4.25-9.23,31.69,31.69,0,0,1-1.92-3.76,19.43,19.43,0,0,1,2.37,3.51,66.55,66.55,0,0,1,7.47,19A18.72,18.72,0,0,1,293.11,272Z" style="fill:#263238"></path><path d="M461.53,238.13a17.37,17.37,0,0,1-1.26,3.11c-.83,1.9-1.92,4.54-2.95,7.51s-1.81,5.72-2.34,7.72a18.53,18.53,0,0,1-.94,3.23,13.54,13.54,0,0,1,.44-3.34,60.6,60.6,0,0,1,2.15-7.85A59.59,59.59,0,0,1,459.8,241,13.79,13.79,0,0,1,461.53,238.13Z" style="fill:#263238"></path><path d="M293.35,277.82a2.87,2.87,0,0,1,.11.78c0,.6.09,1.34.16,2.25.13,2.06.3,4.87.51,8.3.44,7,1.08,16.67,2,27.33s1.86,20.31,2.59,27.29c.36,3.41.66,6.21.87,8.26.09.91.16,1.65.21,2.25a3.16,3.16,0,0,1,0,.79,3.1,3.1,0,0,1-.17-.77c-.09-.59-.21-1.33-.35-2.24-.29-1.94-.66-4.75-1.1-8.23-.86-7-1.91-16.61-2.8-27.29s-1.46-20.35-1.76-27.37c-.15-3.5-.24-6.34-.28-8.3,0-.92,0-1.67,0-2.26A3.43,3.43,0,0,1,293.35,277.82Z" style="fill:#263238"></path><g style="opacity:0.30000000000000004"><path d="M293.62,280.85c-4.81,21.82-4,46.23,6.14,67.55C296.86,325.18,293.62,280.85,293.62,280.85Z"></path></g><path d="M498.51,334s3.74,58,3.14,67.15-3.26,22.17-21.06,25.63-59.87-8.68-59.87-8.68L409,408.68c-.59-9.82,17.87-21.93,27.43-19.66,6.2,1.48,13.06,4.15,14.68,3.81,4-.84,12.67-7.9,12.67-7.9l-1.69-35.5Z" style="fill:#ffbe9d"></path><path d="M463.76,385.47a4.07,4.07,0,0,1,1-1,10.91,10.91,0,0,1,3.42-1.76,21.52,21.52,0,0,1,12.57,0,14.4,14.4,0,0,1,6,3.67,15.61,15.61,0,0,1,3.21,4.73,13.27,13.27,0,0,1,1,3.71,4.36,4.36,0,0,1,.05,1.41,25.37,25.37,0,0,0-1.54-4.9,16.25,16.25,0,0,0-3.22-4.48,14.32,14.32,0,0,0-5.72-3.45,22.33,22.33,0,0,0-12.19-.23A15,15,0,0,0,463.76,385.47Z" style="fill:#eb996e"></path><path d="M256.07,343.16s.24,60.61,1.13,69.7,4,22,21.86,24.91,59.56-10.65,59.56-10.65l24-11.87L345.2,398.92a19.64,19.64,0,0,0-19.91-4.21c-7.32,2.55-16,5.29-18.15,4.9a106.54,106.54,0,0,1-11.05-3l3.13-46.18Z" style="fill:#ffbe9d"></path><path d="M296.09,396.59a16.39,16.39,0,0,0-4.85-2.22,26.06,26.06,0,0,0-12.79-.11,13.59,13.59,0,0,0-6,3.51,15.91,15.91,0,0,0-3.3,4.71,23.71,23.71,0,0,0-1.48,5.15,4.91,4.91,0,0,1,0-1.47,13.49,13.49,0,0,1,1-3.89,15.77,15.77,0,0,1,3.3-5,13.92,13.92,0,0,1,6.28-3.74,25,25,0,0,1,13.12.32,12.33,12.33,0,0,1,3.63,1.71,5.91,5.91,0,0,1,.84.71C296,396.47,296.11,396.57,296.09,396.59Z" style="fill:#eb996e"></path><path d="M321.53,399.82s2.46-3.93,4.38-5.36a71.06,71.06,0,0,0,17.65,13.77h0c1-2.11,4.26-6.89,8.15-6.2s3.54,4.07,3.54,4.07c.79-2.11,3-5.6,6.67-4.9s4.4,5.3,4.4,5.3c1-1.74,3.64-2.63,3.64-2.63,5.31,0,5.11,5.83,5.11,5.83l.1,0a3.88,3.88,0,0,1,5.4,3.47c.16,3.72.36,10.07-.12,12.29-.7,3.21-6.63,2.84-6.63,2.84s-1.58,7.19-2,9.46-3,1.87-6.09,2.15S358.9,438,358.9,438s-4.43,3.58-9.45,2.4a11.93,11.93,0,0,1-7.31-5.89s-5.92-.93-9.57-3.69-6.08-9.69-6.08-9.69c-4.05-.31-6.48-4.08-6.48-4.08Z" style="fill:#ffbe9d"></path><path d="M336.19,433.08a5.17,5.17,0,0,1-1.08-.35,10.68,10.68,0,0,1-2.67-1.7,20.57,20.57,0,0,1-5.84-9.29l.34.24a6.69,6.69,0,0,1-4.26-1.25,10.42,10.42,0,0,1-1.78-1.54,6.47,6.47,0,0,1-1.4-2,4.88,4.88,0,0,1-.33-2.61l.39-2.37.75-4.46c.5-2.81.94-5.36,1.33-7.56a8.64,8.64,0,0,1,1.52-2.63c.54-.7,1-1.27,1.42-1.73a8.71,8.71,0,0,1,1.33-1.36A11.13,11.13,0,0,1,324.8,396c-.37.48-.81,1.08-1.31,1.79a8.74,8.74,0,0,0-1.34,2.47c-.34,2.2-.74,4.76-1.17,7.57l-.72,4.48c-.12.78-.25,1.56-.38,2.36a4.28,4.28,0,0,0,.29,2.23c1.37,2.56,4.13,4.61,6.73,4.41l.26,0,.09.26a21.24,21.24,0,0,0,5.46,9.18A17.63,17.63,0,0,0,336.19,433.08Z" style="fill:#eb996e"></path><path d="M325.34,405.41a4,4,0,0,1,1.32.12,21.07,21.07,0,0,1,3.49.92,13.52,13.52,0,0,1,4.66,2.73,9.68,9.68,0,0,1,3.11,5.84,6.9,6.9,0,0,1-2.43,6.12,5.47,5.47,0,0,1-2.71,1.23,6,6,0,0,1-2.55-.26,17.19,17.19,0,0,0-3.43-.88,12.53,12.53,0,0,0-1.29,0,2.13,2.13,0,0,1,1.3-.33,13.86,13.86,0,0,1,3.54.68,5.88,5.88,0,0,0,2.34.15,4.7,4.7,0,0,0,2.37-1.15,6.27,6.27,0,0,0,2.14-5.51,9.26,9.26,0,0,0-2.85-5.44,13.67,13.67,0,0,0-4.38-2.74C327.18,405.83,325.31,405.54,325.34,405.41Z" style="fill:#eb996e"></path><path d="M337.61,405.19c.21.08-.19,1.26-.92,2.51s-1.34,2.24-1.53,2.16.16-1.24.89-2.52S337.44,405.14,337.61,405.19Z" style="fill:#eb996e"></path><path d="M355.25,406.1a4,4,0,0,1-.06,1.25,30.73,30.73,0,0,1-.58,3.34A54,54,0,0,1,351,421.3,55.7,55.7,0,0,1,345.3,431a33.78,33.78,0,0,1-2.14,2.64c-.54.59-.86.9-.9.87s1-1.45,2.62-3.81a69.47,69.47,0,0,0,5.43-9.68,67,67,0,0,0,3.8-10.42C354.85,407.83,355.14,406.08,355.25,406.1Z" style="fill:#eb996e"></path><path d="M366.32,406.5a4.37,4.37,0,0,1,0,1.29c0,.82-.11,2-.25,3.48a92.71,92.71,0,0,1-1.87,11.38,83.53,83.53,0,0,1-3.36,11c-.53,1.38-1,2.47-1.36,3.22a4.19,4.19,0,0,1-.61,1.13,45.35,45.35,0,0,1,1.49-4.53c.94-2.77,2.12-6.65,3.13-11s1.65-8.36,2.07-11.27A39.58,39.58,0,0,1,366.32,406.5Z" style="fill:#eb996e"></path><path d="M375.07,409.7a10,10,0,0,1,.29,2.92,64.23,64.23,0,0,1-.25,7.06c-.25,2.75-.62,5.22-1,7a11,11,0,0,1-.73,2.84c-.21,0,.48-4.44,1-9.89S374.87,409.71,375.07,409.7Z" style="fill:#eb996e"></path><path d="M335.59,422.27a10,10,0,0,1,1.12-2.1c.91-1.55,1.85-3.15,2.88-4.92,1.11-1.92,2.11-3.68,2.8-4.95a13.2,13.2,0,0,1,1.17-2.07,5.79,5.79,0,0,1-.7,2.29,54.6,54.6,0,0,1-2.64,5.1C338,419.5,335.78,422.41,335.59,422.27Z" style="fill:#eb996e"></path><path d="M380.75,414.22a2.72,2.72,0,0,1-.15-.6,10.89,10.89,0,0,0-.45-1.69,4.35,4.35,0,0,0-1.6-2.12,3.69,3.69,0,0,0-3.39.06l-.29.14,0-.32a7,7,0,0,0-.38-2.79,3.89,3.89,0,0,0-2.08-2.16,7,7,0,0,0-1.61-.49c-.28-.06-.57-.1-.87-.14a1.59,1.59,0,0,0-.77.11,7,7,0,0,0-2.65,2.43l-.6.82.14-1a4.37,4.37,0,0,0-.34-2.62,4.27,4.27,0,0,0-2-1.82,5.54,5.54,0,0,0-5.22.17,7,7,0,0,0-3,4l-.47-.09a3.19,3.19,0,0,0-.82-2.75,4.44,4.44,0,0,0-2.5-1.09h0a5.68,5.68,0,0,0-4.21,1,10.49,10.49,0,0,0-2.39,2.45,15,15,0,0,0-1.15,1.88,5.69,5.69,0,0,1-.37.68,2.44,2.44,0,0,1,.26-.74,12.83,12.83,0,0,1,1.07-1.95,10.22,10.22,0,0,1,2.39-2.59,6,6,0,0,1,4.47-1.13h0a4.83,4.83,0,0,1,2.79,1.17,3.63,3.63,0,0,1,1,3.14L355,406a7.46,7.46,0,0,1,3.22-4.29,6.43,6.43,0,0,1,2.78-.82,6,6,0,0,1,2.92.61,4.84,4.84,0,0,1,2.25,2.06,5,5,0,0,1,.39,2.94l-.47-.18a7.33,7.33,0,0,1,2.9-2.6,2.14,2.14,0,0,1,1-.13c.3.05.6.09.89.15a7.74,7.74,0,0,1,1.71.54,4.32,4.32,0,0,1,2.29,2.43,7.21,7.21,0,0,1,.35,3l-.27-.18a3.94,3.94,0,0,1,3.71,0,4.32,4.32,0,0,1,1.64,2.3,8.14,8.14,0,0,1,.37,1.74A2.88,2.88,0,0,1,380.75,414.22Z" style="fill:#eb996e"></path><path d="M448.67,398.63s-2.45-3.93-4.38-5.36a71,71,0,0,1-17.64,13.78h0c-1-2.12-4.27-6.9-8.16-6.21s-3.54,4.07-3.54,4.07c-.79-2.1-3-5.6-6.67-4.9s-4.4,5.31-4.4,5.31c-1-1.74-3.63-2.64-3.63-2.64-5.32,0-5.12,5.84-5.12,5.84l-.1,0a3.88,3.88,0,0,0-5.39,3.47c-.17,3.73-.36,10.07.12,12.29.69,3.22,6.63,2.84,6.63,2.84s1.58,7.2,2,9.46,3,1.87,6.1,2.15,6.82-1.84,6.82-1.84,4.43,3.58,9.45,2.4a11.9,11.9,0,0,0,7.32-5.88s5.91-.94,9.56-3.69,6.08-9.7,6.08-9.7c4.05-.31,6.48-4.07,6.48-4.07Z" style="fill:#ffbe9d"></path><path d="M434,431.89a4,4,0,0,0,1.08-.34,11.32,11.32,0,0,0,2.68-1.7,20.69,20.69,0,0,0,5.84-9.3l-.35.25a6.79,6.79,0,0,0,4.27-1.26A10.68,10.68,0,0,0,449.3,418a6.59,6.59,0,0,0,1.41-2,5,5,0,0,0,.32-2.61l-.39-2.37-.75-4.45c-.49-2.81-.94-5.37-1.33-7.57a8.44,8.44,0,0,0-1.52-2.63c-.53-.69-1-1.27-1.42-1.73a8.2,8.2,0,0,0-1.33-1.36,10.44,10.44,0,0,0,1.11,1.54c.37.49.82,1.08,1.31,1.79a9.16,9.16,0,0,1,1.35,2.47c.34,2.21.73,4.76,1.17,7.57.22,1.44.46,2.94.71,4.49.12.77.25,1.56.38,2.36a4.28,4.28,0,0,1-.28,2.23c-1.37,2.55-4.14,4.6-6.74,4.4l-.26,0-.08.27a21.26,21.26,0,0,1-5.47,9.17A17.08,17.08,0,0,1,434,431.89Z" style="fill:#eb996e"></path><path d="M444.86,404.22a4.19,4.19,0,0,0-1.31.13,20.92,20.92,0,0,0-3.5.91A13.53,13.53,0,0,0,435.4,408a9.66,9.66,0,0,0-3.12,5.84,6.88,6.88,0,0,0,2.43,6.11,5.34,5.34,0,0,0,2.71,1.23,6.13,6.13,0,0,0,2.55-.25,17.53,17.53,0,0,1,3.43-.89c.82-.06,1.28.11,1.29,0a2.12,2.12,0,0,0-1.29-.32,13.83,13.83,0,0,0-3.55.67,5.86,5.86,0,0,1-2.34.16,4.91,4.91,0,0,1-2.37-1.15,6.34,6.34,0,0,1-2.14-5.52,9.25,9.25,0,0,1,2.86-5.44,13.92,13.92,0,0,1,4.38-2.74C443,404.64,444.9,404.35,444.86,404.22Z" style="fill:#eb996e"></path><path d="M432.59,404c-.21.08.19,1.26.93,2.5s1.34,2.24,1.52,2.16-.16-1.24-.89-2.52S432.76,404,432.59,404Z" style="fill:#eb996e"></path><path d="M415,404.91a4,4,0,0,0,.06,1.25,28.61,28.61,0,0,0,.59,3.35,53.8,53.8,0,0,0,3.63,10.6,55.32,55.32,0,0,0,5.67,9.67c.86,1.16,1.6,2.05,2.14,2.64s.86.9.9.87-1-1.44-2.62-3.8a70.06,70.06,0,0,1-5.43-9.68,66.16,66.16,0,0,1-3.79-10.42C415.35,406.64,415.07,404.89,415,404.91Z" style="fill:#eb996e"></path><path d="M403.88,405.32a4.27,4.27,0,0,0,0,1.28c0,.83.11,2,.26,3.49A90.71,90.71,0,0,0,406,421.46a82.2,82.2,0,0,0,3.35,11c.53,1.38,1,2.48,1.36,3.22a4.57,4.57,0,0,0,.61,1.13,42.65,42.65,0,0,0-1.49-4.52c-.94-2.78-2.12-6.66-3.13-11S405,412.93,404.61,410A39.58,39.58,0,0,0,403.88,405.32Z" style="fill:#eb996e"></path><path d="M395.13,408.52a9.9,9.9,0,0,0-.29,2.92,62,62,0,0,0,.26,7.05c.24,2.75.61,5.22.95,7a11.34,11.34,0,0,0,.73,2.84c.21,0-.48-4.44-1-9.9S395.33,408.53,395.13,408.52Z" style="fill:#eb996e"></path><path d="M434.61,421.08a9.55,9.55,0,0,0-1.12-2.09l-2.88-4.92c-1.11-1.93-2.1-3.68-2.8-5a13.93,13.93,0,0,0-1.16-2.06,5.38,5.38,0,0,0,.7,2.28,50.79,50.79,0,0,0,2.63,5.1C432.21,418.31,434.42,421.23,434.61,421.08Z" style="fill:#eb996e"></path><path d="M389.45,413a2.64,2.64,0,0,1,.05-.62,8,8,0,0,1,.36-1.73,4.46,4.46,0,0,1,1.64-2.31,4,4,0,0,1,3.72,0l-.28.18a7.4,7.4,0,0,1,.35-3,4.35,4.35,0,0,1,2.29-2.43,7.22,7.22,0,0,1,1.71-.53c.3-.07.6-.11.89-.15a2.06,2.06,0,0,1,1,.12,7.38,7.38,0,0,1,2.89,2.6l-.46.19a4.93,4.93,0,0,1,.38-2.94,4.81,4.81,0,0,1,2.26-2.06,5.81,5.81,0,0,1,2.92-.61,6.24,6.24,0,0,1,2.78.82,7.38,7.38,0,0,1,3.21,4.28l-.47.09a3.61,3.61,0,0,1,1-3.13,4.76,4.76,0,0,1,2.79-1.17h0a6,6,0,0,1,4.46,1.12,10.2,10.2,0,0,1,2.39,2.59,13.07,13.07,0,0,1,1.08,2,2.87,2.87,0,0,1,.26.74,5.74,5.74,0,0,1-.37-.69,17.58,17.58,0,0,0-1.16-1.88,10.49,10.49,0,0,0-2.39-2.45,5.7,5.7,0,0,0-4.2-1h0a4.45,4.45,0,0,0-2.51,1.08,3.16,3.16,0,0,0-.81,2.75l-.47.09a7,7,0,0,0-3-4,5.54,5.54,0,0,0-5.22-.18,4.29,4.29,0,0,0-2,1.83,4.43,4.43,0,0,0-.34,2.62l.14,1-.6-.83A7.08,7.08,0,0,0,401,403a1.76,1.76,0,0,0-.78-.11l-.87.14a6.78,6.78,0,0,0-1.6.49,3.86,3.86,0,0,0-2.09,2.17,6.77,6.77,0,0,0-.37,2.79v.32l-.29-.14a3.66,3.66,0,0,0-3.39-.06,4.22,4.22,0,0,0-1.59,2.12,10.8,10.8,0,0,0-.46,1.68A2.51,2.51,0,0,1,389.45,413Z" style="fill:#eb996e"></path></g><g id="freepik--Earth--inject-22"><path d="M331.24,275.3a.14.14,0,0,1,0,.06c0,.08-.1.09-.18.09a3.18,3.18,0,0,1-.76-.19c-.66-.23-1.59-.63-2.77-1.17-2.36-1.1-5.72-2.79-9.84-4.95-8.24-4.31-19.52-10.46-31.92-17.34S262.21,238.59,254.13,234l-9.55-5.49L242,227l-.66-.41a1.11,1.11,0,0,1-.22-.15.67.67,0,0,1,.24.1l.69.37,2.63,1.43,9.63,5.34,31.74,17.68c12.4,6.89,23.65,13.08,31.84,17.48,4.1,2.19,7.43,3.93,9.76,5.08,1.17.58,2.08,1,2.71,1.26a5,5,0,0,0,.73.24C331.3,275.44,331.23,275.29,331.24,275.3Z" style="fill:#263238"></path><path d="M334,338.39c.07.12-23.33,14.68-52.27,32.52s-52.46,32.2-52.54,32.08,23.32-14.68,52.27-32.53S333.87,338.26,334,338.39Z" style="fill:#263238"></path><path d="M323.6,310.29l-.29,0-.86,0-3.31.07-12.15.24L266.9,311.7c-15.66.43-29.84.78-40.11.9-5.13.07-9.29.09-12.16.08l-3.3,0-.86,0-.3,0a1.16,1.16,0,0,1,.3,0l.86,0,3.3-.07,12.15-.24,40.1-1.05c15.66-.43,29.84-.77,40.1-.9,5.14-.07,9.29-.09,12.16-.08l3.31,0,.86,0A1.11,1.11,0,0,1,323.6,310.29Z" style="fill:#263238"></path><path d="M434,271.79s0,.15.15.06a4.42,4.42,0,0,0,.7-.33c.6-.33,1.47-.85,2.57-1.55,2.21-1.39,5.37-3.47,9.25-6.06,7.76-5.2,18.41-12.48,30.15-20.55l30.06-20.71L516,216.4l2.49-1.68.66-.43.23-.13s-.06.07-.2.18l-.63.47-2.44,1.76-9,6.39c-7.65,5.37-18.23,12.75-30,20.83s-22.42,15.3-30.24,20.42c-3.91,2.56-7.1,4.6-9.34,5.94-1.12.67-2,1.16-2.63,1.46a3.35,3.35,0,0,1-.73.29c-.08,0-.19,0-.2,0S434,271.79,434,271.79Z" style="fill:#263238"></path><path d="M431.32,334.87c.07-.12,23.77,14.35,52.93,32.32S537,399.84,536.91,400,513.14,385.61,484,367.64,431.24,335,431.32,334.87Z" style="fill:#263238"></path><path d="M441.66,306.77l.3,0,.86,0,3.3,0c2.87,0,7,0,12.16.08,10.27.12,24.44.47,40.1.9l40.1,1.05,12.15.24,3.31.07.86,0,.29,0-.29,0-.86,0-3.31,0c-2.87,0-7,0-12.16-.08-10.26-.13-24.44-.47-40.1-.9l-40.1-1.05-12.15-.24-3.3-.07-.86,0A1.16,1.16,0,0,1,441.66,306.77Z" style="fill:#263238"></path><path d="M431,300.06c-.05-.54-.11-1.07-.19-1.61s-.15-1.13-.24-1.69c.09.56.17,1.13.24,1.69S430.93,299.52,431,300.06Z" style="fill:#263238"></path><path d="M426.73,306.75a24.66,24.66,0,0,1-.87-3.33,2.16,2.16,0,0,0-1-1.49,7.51,7.51,0,0,0-1.18-.27c-1.38-.43-1.76-2.39-3.07-3a4.2,4.2,0,0,0-1.31-.28,6.83,6.83,0,0,1-4.67-2.23,8.5,8.5,0,0,0-1.08-1.36,1.28,1.28,0,0,0-1.59-.15l1.1,2.25a5.84,5.84,0,0,0,1.23,1.88,2,2,0,0,0,2.06.45,1.32,1.32,0,0,1,.7-.25.72.72,0,0,1,.45.3,3.16,3.16,0,0,1-.29,4,8.84,8.84,0,0,1-3.62,2.2,2.78,2.78,0,0,1-1.48.3c-.92-.18-1.41-1.2-1.68-2.11-.6-2-.88-4.21-2.11-5.91a7.68,7.68,0,0,1-1.12-1.66,9.24,9.24,0,0,0-.59-2.06c-.42-.63-1.3-1-1.36-1.74a1.38,1.38,0,0,1,.87-1.22c.47-.24,1-.3,1.49-.51.2-.08.41-.22.42-.44s-.43-.44-.54-.73.21-.64.35-1c.31-.74-.45-1.48-1.18-1.79s-1.61-.52-1.95-1.24a4.24,4.24,0,0,1-.23-1.08,2.34,2.34,0,0,0-1.73-1.94,1.54,1.54,0,0,0-1.77,1.59,6.56,6.56,0,0,0,.66,1.36c.2.47.14,1.16-.33,1.31-.78.25-1.52-1.2-2.17-.7.26.92.52,1.85.79,2.79-1,.52-2.24-.43-2.68-1.52s-.45-2.31-1-3.35-1.92-1.83-2.8-1.09c-.05,1.34,1.69,1.88,2.46,3a1.86,1.86,0,0,1-.35,2.56c-.81.49-2.11-.37-1.8-1.29a3.57,3.57,0,0,0,.4-.92,1.36,1.36,0,0,0-.63-1l-1.49-1.27a3.15,3.15,0,0,0-1.06-.68c-1-.3-2,.54-2.58,1.47a13.26,13.26,0,0,1-1.59,2.8,2.87,2.87,0,0,1-4.11,0,2.48,2.48,0,0,1,1-3.83c.56-.16,1.27-.14,1.57-.65.51-.9-1-2-.46-2.95.4-.69,1.43-.37,2.19-.61s1.17-1,1.61-1.66,1.12-1.32,1.89-1.15a2.44,2.44,0,0,1,.09-1.37.81.81,0,0,1,1.13-.42,1.4,1.4,0,0,0,.73,1.83,3.92,3.92,0,0,0,2.15.16c.73-.09,1.64-.36,1.7-1.1a2.54,2.54,0,0,1,0-.73c.32-.88,1.92.34,2.53-.37.35-.37,0-1-.53-1.15a5.15,5.15,0,0,0-1.51.08c-.5,0-1.11-.25-1.13-.76s.53-.87.59-1.37c.09-.84-1.31-1.06-1.81-.38a3.27,3.27,0,0,0-.17,2.47,2.63,2.63,0,0,1-.38,2.41c-.25.4-.93.19-1.15-.23a3.34,3.34,0,0,1-.21-1.41c0-.48-.25-1-.71-1.16a2.36,2.36,0,0,0-1,.12c-1.29.16-2.18-1.54-1.78-2.79a5.29,5.29,0,0,1,2.7-2.71c.83-.46,1.86-.9,2.68-.43.39.22.65.6,1,.82a4.32,4.32,0,0,0,2.21.27,5.09,5.09,0,0,1,3.21,1.27c.34.31.65.82.39,1.19s-1.09.48-.95.94a1.6,1.6,0,0,0,2-1.32,1.37,1.37,0,0,1,.78,1.11,2.37,2.37,0,0,1,3.51.3,3.08,3.08,0,0,0,.66.85c.29.2.81.1.85-.26a1,1,0,0,0-.06-.33l-.54-1.52c.69-.38,1.5.21,2,.84,1.73,2.36,3,.95,5.4,1.33,1.65.26,2.38,1.33,3.31,2.64,2.86,4,6.63,7.29,9.23,11.49.27.43.52.88.76,1.33,0-.11-.08-.23-.13-.34a46.57,46.57,0,0,0-3.77-7.82c-.32-.52-.64-1-1-1.56l-.63-.95-.85-1.19c-.23-.31-.46-.62-.7-.92l-.5-.64c-.18-.24-.37-.47-.58-.71l-.62-.73-.2-.22c-.21-.26-.44-.51-.67-.76a.23.23,0,0,0-.07-.07l-.19-.21c-.19-.21-.39-.41-.58-.61s-.64-.67-1-1-.55-.55-.84-.81-.5-.47-.76-.69l-.76-.67c-.31-.27-.63-.53-1-.8h0c-.89-.73-1.82-1.42-2.76-2.07l-.71-.48c-.23-.17-.48-.32-.71-.47s-.48-.31-.73-.45-.49-.3-.73-.45-.39-.23-.59-.33A2.48,2.48,0,0,0,407,263c-.42-.24-.85-.47-1.28-.69-.21-.11-.43-.23-.65-.33s-.55-.28-.83-.41a.52.52,0,0,0-.13-.06l-.76-.35-1.09-.47c-.41-.18-.83-.35-1.25-.51s-.93-.35-1.4-.51-1-.32-1.44-.47-1-.29-1.45-.43c-1-.26-1.94-.49-2.92-.7h-.05l-1.14-.21-.07,0-.5-.08q-1.07-.18-2.13-.3a1.15,1.15,0,0,0-.26,0l-.63-.07c-.48-.05-1-.08-1.43-.11s-1-.06-1.5-.08-1.05,0-1.58,0c-1.39,0-2.76.06-4.13.19q-.48,0-1,.09l-1,.12-1,.14-1,.17c-.28,0-.57.1-.85.16-.7.13-1.38.28-2.06.45-.32.07-.64.16-1,.25l-.95.26c-.52.15-1,.32-1.54.48h0l-1.24.43,0,0-1.25.47-.06,0-1.13.46-1.37.62-1.13.55-1.2.62,0,0-1.12.64c-.39.21-.77.44-1.14.68h0l-1.05.67c-.14.08-.26.17-.39.26-.37.24-.73.49-1.09.75s-.88.63-1.3.95-.75.58-1.11.88a46.77,46.77,0,0,0-5.82,5.61c-.63.71-1.22,1.43-1.8,2.17s-1,1.28-1.41,1.94-.8,1.17-1.18,1.76c.38-.59.77-1.18,1.18-1.76l.35,0a5.4,5.4,0,0,0,2-.32,11.44,11.44,0,0,0,1.45-1.15c1.29-.93,3.4-1.11,3.75-2.67a10.71,10.71,0,0,1,.17-1.61c.36-.94,1.6-1.08,2.59-1.06.42,0,.91.06,1.11.44a1.06,1.06,0,0,1-.05.87,8.12,8.12,0,0,1-3.39,4.25c-1.29.8-3,1.42-3.33,2.91.18.51,1.08.47,1.16,1s-.48.64-.68,1c-.28.55.37,1.22,1,1.19a2.68,2.68,0,0,0,1.58-.9c1.34-1.27,2.76-2.65,3.25-4.45a3.89,3.89,0,0,1,.87-2.12,1.44,1.44,0,0,1,2.2.71c.58-.33,1.49-.58,1.79,0a2.87,2.87,0,0,1,.13.71c.19,1,1.49,1.4,1.62,2.37.16,1.13-1.26,1.71-2.36,1.88l-3,.48a2.85,2.85,0,0,0-1.24.41,1,1,0,0,0-.37,1.18,3,3,0,0,0,.52.55,1.63,1.63,0,0,1-1,2.62c-.4,0-.79-.14-1.19-.15-1.19-.05-2.13,1-2.69,2.07a8.38,8.38,0,0,1-1.93,3c-1.52,1.17-4.15.9-4.89,2.69a4.35,4.35,0,0,0,0,2.32,3.16,3.16,0,0,1-.28,2.27c-.43.63-1.57.76-1.9.06a1.82,1.82,0,0,1,0-1l.51-3.34a3.34,3.34,0,0,0-.24-2.44,2.14,2.14,0,0,0-3.06-.1,5.66,5.66,0,0,0-1.47,3.09,13,13,0,0,1-.84,3h0c-.16.94-.28,1.89-.38,2.85s-.16,1.95-.2,2.94a3.1,3.1,0,0,0,.38-.36c.47-.49,1.41-2.56,2.25-1.54a.78.78,0,0,1,0,.94c-.26.34-.77.41-1,.78s.09,1,.49,1.27a4.12,4.12,0,0,1,1.17.89c.54.79,0,2,.55,2.79s1.41.74,2.23.83l.28.05a3.78,3.78,0,0,1,3.22-3.52c3.06-.71,7.08,1.88,8.81,4.23,1.92,2.63,2.83,6.35,5.78,7.67,2.1.94,5.1.6,6.13,2.71.92,1.88-.68,4-.93,6.09a22.22,22.22,0,0,0,.4,4.13c.09,1.39-.31,3-1.54,3.58-.69.32-1.56.28-2.11.81-1,.94-.18,2.9-1.16,3.85a4.89,4.89,0,0,1-1.25.68c-2.22,1.13-2.16,4.45-1.13,6.75a2.56,2.56,0,0,1,.11.24,46,46,0,0,0,45.92,1.18h0a44.83,44.83,0,0,0,4.13-2.54,46.09,46.09,0,0,0,5.81-4.7,45.33,45.33,0,0,0,3.55-3.78c.79-.92,1.53-1.87,2.24-2.85.36-.51.71-1,1.05-1.53a48.15,48.15,0,0,0,2.79-4.76,48.24,48.24,0,0,0,4.8-15.5c.15-1.08.26-2.16.33-3.25a2.71,2.71,0,0,1-1.88.85A3,3,0,0,1,426.73,306.75Z" style="fill:#FF725E"></path><path d="M343.82,317.3a33.45,33.45,0,0,1,.32-4.1c0-.95-.05-2-.07-2.91a12.66,12.66,0,0,1-2.37-.34.73.73,0,0,1-.44-.23.85.85,0,0,1-.09-.5c-.06-1.07-1.08-1.78-2-2.32a7.45,7.45,0,0,0-1.44-.72c0,.11,0,.22,0,.33a48.14,48.14,0,0,0,3,15.11,45.78,45.78,0,0,0,2.86,6.24c.46.87,1,1.72,1.48,2.56.66,1,1.34,2,2.07,3s1.4,1.85,2.17,2.73a46.85,46.85,0,0,0,3.3,3.46c1,1,2.11,1.91,3.22,2.79-2.55-7-4.95-14.1-9.32-20C345.35,320.82,344,319.23,343.82,317.3Z" style="fill:#FF725E"></path><path d="M337.73,303.92c0,.29,0,.58,0,.86s0,.47,0,.7c0-.23,0-.46,0-.7S337.73,304.21,337.73,303.92Z" style="fill:#263238"></path><g style="opacity:0.6000000000000001"><path d="M358.44,344.34c.39.27.79.54,1.19.79s.56.36.85.53c-.29-.17-.57-.35-.85-.53S358.83,344.61,358.44,344.34Z" style="fill:#263238"></path></g><g style="opacity:0.6000000000000001"><path d="M337.76,302.8h0a2.26,2.26,0,0,0,0,.26c0,.29,0,.58,0,.86,0-.28,0-.57,0-.86A2.26,2.26,0,0,1,337.76,302.8Z" style="fill:#263238"></path></g><g style="opacity:0.6000000000000001"><path d="M337.73,305.48c0,.23,0,.47,0,.7h0C337.73,306,337.73,305.71,337.73,305.48Z" style="fill:#263238"></path></g><path d="M344.15,308.44l-.28-.05c-.82-.09-1.78-.13-2.23-.83s0-2-.55-2.79a4.12,4.12,0,0,0-1.17-.89c-.4-.29-.74-.83-.49-1.27s.71-.44,1-.78a.78.78,0,0,0,0-.94c-.84-1-1.78,1.05-2.25,1.54a3.1,3.1,0,0,1-.38.36h0a2.26,2.26,0,0,0,0,.26c0,.29,0,.58,0,.86s0,.58,0,.86,0,.47,0,.7,0,.47,0,.7a7.45,7.45,0,0,1,1.44.72c.91.54,1.93,1.25,2,2.32a.85.85,0,0,0,.09.5.73.73,0,0,0,.44.23,12.66,12.66,0,0,0,2.37.34" style="fill:#FF725E"></path><path d="M344.07,310.29c0,.95.08,2,.07,2.91a33.45,33.45,0,0,0-.32,4.1c.22,1.93,1.53,3.52,2.68,5.07,4.37,5.94,6.77,13.06,9.32,20h0c.47.39.95.75,1.44,1.1l1.17.83c.39.27.79.54,1.19.79s.56.36.85.53a2.56,2.56,0,0,0-.11-.24c-1-2.3-1.09-5.62,1.13-6.75a4.89,4.89,0,0,0,1.25-.68c1-.95.17-2.91,1.16-3.85.55-.53,1.42-.49,2.11-.81,1.23-.58,1.63-2.19,1.54-3.58a22.22,22.22,0,0,1-.4-4.13c.25-2.09,1.85-4.21.93-6.09-1-2.11-4-1.77-6.13-2.71-2.95-1.32-3.86-5-5.78-7.67-1.73-2.35-5.75-4.94-8.81-4.23a3.78,3.78,0,0,0-3.22,3.52" style="fill:#FF725E"></path><path d="M340.65,290.91a2.14,2.14,0,0,1,3.06.1,3.34,3.34,0,0,1,.24,2.44l-.51,3.34a1.82,1.82,0,0,0,0,1c.33.7,1.47.57,1.9-.06a3.16,3.16,0,0,0,.28-2.27,4.35,4.35,0,0,1,0-2.32c.74-1.79,3.37-1.52,4.89-2.69a8.38,8.38,0,0,0,1.93-3c.56-1.06,1.5-2.12,2.69-2.07.4,0,.79.16,1.19.15a1.63,1.63,0,0,0,1-2.62,3,3,0,0,1-.52-.55,1,1,0,0,1,.37-1.18,2.85,2.85,0,0,1,1.24-.41l3-.48c1.1-.17,2.52-.75,2.36-1.88-.13-1-1.43-1.41-1.62-2.37a2.87,2.87,0,0,0-.13-.71c-.3-.62-1.21-.37-1.79,0a1.44,1.44,0,0,0-2.2-.71,3.89,3.89,0,0,0-.87,2.12c-.49,1.8-1.91,3.18-3.25,4.45a2.68,2.68,0,0,1-1.58.9c-.61,0-1.26-.64-1-1.19.2-.37.73-.59.68-1s-1-.49-1.16-1c.36-1.49,2-2.11,3.33-2.91a8.12,8.12,0,0,0,3.39-4.25,1.06,1.06,0,0,0,.05-.87c-.2-.38-.69-.44-1.11-.44-1,0-2.23.12-2.59,1.06a10.71,10.71,0,0,0-.17,1.61c-.35,1.56-2.46,1.74-3.75,2.67a11.44,11.44,0,0,1-1.45,1.15,5.4,5.4,0,0,1-2,.32l-.35,0c-.41.58-.8,1.17-1.18,1.76s-.74,1.21-1.09,1.82A47.79,47.79,0,0,0,340,290c-.36,1.13-.68,2.27-1,3.44s-.51,2.34-.7,3.53a13,13,0,0,0,.84-3A5.66,5.66,0,0,1,340.65,290.91Z" style="fill:#FF725E"></path><g style="opacity:0.6000000000000001"><path d="M431.19,304.13c0-.69,0-1.37-.06-2.05,0,.68.06,1.36.06,2.05,0,.22,0,.43,0,.65,0,1.06,0,2.1-.1,3.14.06-1,.1-2.08.1-3.14C431.21,304.56,431.21,304.35,431.19,304.13Z" style="fill:#263238"></path></g><g style="opacity:0.6000000000000001"><path d="M428.27,288.15c.22.6.43,1.21.63,1.82-.2-.61-.41-1.22-.63-1.82,0,0,0,0,0,0h0Z" style="fill:#263238"></path></g><path d="M431.19,304.13c0-.69,0-1.37-.06-2.05s-.09-1.34-.15-2-.11-1.07-.19-1.61-.15-1.13-.24-1.69a48.32,48.32,0,0,0-1.1-4.94c-.17-.62-.36-1.24-.55-1.85s-.41-1.22-.63-1.82h0c-.24-.45-.49-.9-.76-1.33-2.6-4.2-6.37-7.48-9.23-11.49-.93-1.31-1.66-2.38-3.31-2.64-2.44-.38-3.67,1-5.4-1.33-.47-.63-1.28-1.22-2-.84l.54,1.52a1,1,0,0,1,.06.33c0,.36-.56.46-.85.26a3.08,3.08,0,0,1-.66-.85,2.37,2.37,0,0,0-3.51-.3,1.37,1.37,0,0,0-.78-1.11,1.6,1.6,0,0,1-2,1.32c-.14-.46.67-.54.95-.94s0-.88-.39-1.19a5.09,5.09,0,0,0-3.21-1.27,4.32,4.32,0,0,1-2.21-.27c-.38-.22-.64-.6-1-.82-.82-.47-1.85,0-2.68.43a5.29,5.29,0,0,0-2.7,2.71c-.4,1.25.49,2.95,1.78,2.79a2.36,2.36,0,0,1,1-.12c.46.13.67.68.71,1.16a3.34,3.34,0,0,0,.21,1.41c.22.42.9.63,1.15.23a2.63,2.63,0,0,0,.38-2.41,3.27,3.27,0,0,1,.17-2.47c.5-.68,1.9-.46,1.81.38-.06.5-.62.86-.59,1.37s.63.78,1.13.76a5.15,5.15,0,0,1,1.51-.08c.49.12.88.78.53,1.15-.61.71-2.21-.51-2.53.37a2.54,2.54,0,0,0,0,.73c-.06.74-1,1-1.7,1.1a3.92,3.92,0,0,1-2.15-.16,1.4,1.4,0,0,1-.73-1.83.81.81,0,0,0-1.13.42,2.44,2.44,0,0,0-.09,1.37c-.77-.17-1.45.49-1.89,1.15s-.87,1.43-1.61,1.66-1.79-.08-2.19.61c-.51.91,1,2.05.46,2.95-.3.51-1,.49-1.57.65a2.48,2.48,0,0,0-1,3.83,2.87,2.87,0,0,0,4.11,0,13.26,13.26,0,0,0,1.59-2.8c.54-.93,1.56-1.77,2.58-1.47a3.15,3.15,0,0,1,1.06.68l1.49,1.27a1.36,1.36,0,0,1,.63,1,3.57,3.57,0,0,1-.4.92c-.31.92,1,1.78,1.8,1.29a1.86,1.86,0,0,0,.35-2.56c-.77-1.09-2.51-1.63-2.46-3,.88-.74,2.28,0,2.8,1.09s.53,2.27,1,3.35,1.66,2,2.68,1.52c-.27-.94-.53-1.87-.79-2.79.65-.5,1.39.95,2.17.7.47-.15.53-.84.33-1.31a6.56,6.56,0,0,1-.66-1.36,1.54,1.54,0,0,1,1.77-1.59,2.34,2.34,0,0,1,1.73,1.94,4.24,4.24,0,0,0,.23,1.08c.34.72,1.23.94,1.95,1.24s1.49,1.05,1.18,1.79c-.14.33-.47.63-.35,1s.54.42.54.73-.22.36-.42.44c-.48.21-1,.27-1.49.51a1.38,1.38,0,0,0-.87,1.22c.06.75.94,1.11,1.36,1.74a9.24,9.24,0,0,1,.59,2.06,7.68,7.68,0,0,0,1.12,1.66c1.23,1.7,1.51,3.89,2.11,5.91.27.91.76,1.93,1.68,2.11a2.78,2.78,0,0,0,1.48-.3,8.84,8.84,0,0,0,3.62-2.2,3.16,3.16,0,0,0,.29-4,.72.72,0,0,0-.45-.3,1.32,1.32,0,0,0-.7.25,2,2,0,0,1-2.06-.45,5.84,5.84,0,0,1-1.23-1.88l-1.1-2.25a1.28,1.28,0,0,1,1.59.15,8.5,8.5,0,0,1,1.08,1.36,6.83,6.83,0,0,0,4.67,2.23,4.2,4.2,0,0,1,1.31.28c1.31.61,1.69,2.57,3.07,3a7.51,7.51,0,0,1,1.18.27,2.16,2.16,0,0,1,1,1.49,24.66,24.66,0,0,0,.87,3.33,3,3,0,0,0,2.5,2,2.71,2.71,0,0,0,1.88-.85h0c.06-1,.1-2.08.1-3.14C431.21,304.56,431.21,304.35,431.19,304.13Z" style="fill:#FF725E"></path><g style="opacity:0.2"><path d="M355.82,342.41h0c.47.39.95.75,1.44,1.1l1.17.83c.39.27.79.54,1.19.79s.56.36.85.53a2.56,2.56,0,0,0-.11-.24c-1-2.3-1.09-5.62,1.13-6.75a4.89,4.89,0,0,0,1.25-.68c1-.95.17-2.91,1.16-3.85.55-.53,1.42-.49,2.11-.81,1.23-.58,1.63-2.19,1.54-3.58a22.22,22.22,0,0,1-.4-4.13c.25-2.09,1.85-4.21.93-6.09-1-2.11-4-1.77-6.13-2.71-2.95-1.32-3.86-5-5.78-7.67-1.73-2.35-5.75-4.94-8.81-4.23a3.78,3.78,0,0,0-3.22,3.52l-.28-.05c-.82-.09-1.78-.13-2.23-.83s0-2-.55-2.79a4.12,4.12,0,0,0-1.17-.89c-.4-.29-.74-.83-.49-1.27s.71-.44,1-.78a.78.78,0,0,0,0-.94c-.84-1-1.78,1.05-2.25,1.54a3.1,3.1,0,0,1-.38.36h0a2.26,2.26,0,0,0,0,.26c0,.29,0,.58,0,.86s0,.58,0,.86,0,.47,0,.7,0,.47,0,.7,0,.22,0,.33a48.14,48.14,0,0,0,3,15.11,45.78,45.78,0,0,0,2.86,6.24c.46.87,1,1.72,1.48,2.56.66,1,1.34,2,2.07,3s1.4,1.85,2.17,2.73a46.85,46.85,0,0,0,3.3,3.46c1,1,2.11,1.91,3.22,2.79"></path></g><g style="opacity:0.2"><path d="M355.19,285.39c.4,0,.79.16,1.19.15a1.63,1.63,0,0,0,1-2.62,3,3,0,0,1-.52-.55,1,1,0,0,1,.37-1.18,2.85,2.85,0,0,1,1.24-.41l3-.48c1.1-.17,2.52-.75,2.36-1.88-.13-1-1.43-1.41-1.62-2.37a2.87,2.87,0,0,0-.13-.71c-.3-.62-1.21-.37-1.79,0a1.44,1.44,0,0,0-2.2-.71,3.89,3.89,0,0,0-.87,2.12c-.49,1.8-1.91,3.18-3.25,4.45a2.68,2.68,0,0,1-1.58.9c-.61,0-1.26-.64-1-1.19.2-.37.73-.59.68-1s-1-.49-1.16-1c.36-1.49,2-2.11,3.33-2.91a8.12,8.12,0,0,0,3.39-4.25,1.06,1.06,0,0,0,.05-.87c-.2-.38-.69-.44-1.11-.44-1,0-2.23.12-2.59,1.06a10.71,10.71,0,0,0-.17,1.61c-.35,1.56-2.46,1.74-3.75,2.67a11.44,11.44,0,0,1-1.45,1.15,5.4,5.4,0,0,1-2,.32l-.35,0c-.41.58-.8,1.17-1.18,1.76s-.74,1.21-1.09,1.82A47.79,47.79,0,0,0,340,290c-.36,1.13-.68,2.27-1,3.44s-.51,2.34-.7,3.53a13,13,0,0,0,.84-3,5.66,5.66,0,0,1,1.47-3.09,2.14,2.14,0,0,1,3.06.1,3.34,3.34,0,0,1,.24,2.44l-.51,3.34a1.82,1.82,0,0,0,0,1c.33.7,1.47.57,1.9-.06a3.16,3.16,0,0,0,.28-2.27,4.35,4.35,0,0,1,0-2.32c.74-1.79,3.37-1.52,4.89-2.69a8.38,8.38,0,0,0,1.93-3"></path></g><g style="opacity:0.2"><path d="M431.19,304.13c0-.69,0-1.37-.06-2.05s-.09-1.34-.15-2-.11-1.07-.19-1.61-.15-1.13-.24-1.69a48.32,48.32,0,0,0-1.1-4.94c-.17-.62-.36-1.24-.55-1.85s-.41-1.22-.63-1.82h0c-.24-.45-.49-.9-.76-1.33-2.6-4.2-6.37-7.48-9.23-11.49-.93-1.31-1.66-2.38-3.31-2.64-2.44-.38-3.67,1-5.4-1.33-.47-.63-1.28-1.22-2-.84l.54,1.52a1,1,0,0,1,.06.33c0,.36-.56.46-.85.26a3.08,3.08,0,0,1-.66-.85,2.37,2.37,0,0,0-3.51-.3,1.37,1.37,0,0,0-.78-1.11,1.6,1.6,0,0,1-2,1.32c-.14-.46.67-.54.95-.94s0-.88-.39-1.19a5.09,5.09,0,0,0-3.21-1.27,4.32,4.32,0,0,1-2.21-.27c-.38-.22-.64-.6-1-.82-.82-.47-1.85,0-2.68.43a5.29,5.29,0,0,0-2.7,2.71c-.4,1.25.49,2.95,1.78,2.79a2.36,2.36,0,0,1,1-.12c.46.13.67.68.71,1.16a3.34,3.34,0,0,0,.21,1.41c.22.42.9.63,1.15.23a2.63,2.63,0,0,0,.38-2.41,3.27,3.27,0,0,1,.17-2.47c.5-.68,1.9-.46,1.81.38-.06.5-.62.86-.59,1.37s.63.78,1.13.76a5.15,5.15,0,0,1,1.51-.08c.49.12.88.78.53,1.15-.61.71-2.21-.51-2.53.37a2.54,2.54,0,0,0,0,.73c-.06.74-1,1-1.7,1.1a3.92,3.92,0,0,1-2.15-.16,1.4,1.4,0,0,1-.73-1.83.81.81,0,0,0-1.13.42,2.44,2.44,0,0,0-.09,1.37c-.77-.17-1.45.49-1.89,1.15s-.87,1.43-1.61,1.66-1.79-.08-2.19.61c-.51.91,1,2.05.46,2.95-.3.51-1,.49-1.57.65a2.48,2.48,0,0,0-1,3.83,2.87,2.87,0,0,0,4.11,0,13.26,13.26,0,0,0,1.59-2.8c.54-.93,1.56-1.77,2.58-1.47a3.15,3.15,0,0,1,1.06.68l1.49,1.27a1.36,1.36,0,0,1,.63,1,3.57,3.57,0,0,1-.4.92c-.31.92,1,1.78,1.8,1.29a1.86,1.86,0,0,0,.35-2.56c-.77-1.09-2.51-1.63-2.46-3,.88-.74,2.28,0,2.8,1.09s.53,2.27,1,3.35,1.66,2,2.68,1.52c-.27-.94-.53-1.87-.79-2.79.65-.5,1.39.95,2.17.7.47-.15.53-.84.33-1.31a6.56,6.56,0,0,1-.66-1.36,1.54,1.54,0,0,1,1.77-1.59,2.34,2.34,0,0,1,1.73,1.94,4.24,4.24,0,0,0,.23,1.08c.34.72,1.23.94,1.95,1.24s1.49,1.05,1.18,1.79c-.14.33-.47.63-.35,1s.54.42.54.73-.22.36-.42.44c-.48.21-1,.27-1.49.51a1.38,1.38,0,0,0-.87,1.22c.06.75.94,1.11,1.36,1.74a9.24,9.24,0,0,1,.59,2.06,7.68,7.68,0,0,0,1.12,1.66c1.23,1.7,1.51,3.89,2.11,5.91.27.91.76,1.93,1.68,2.11a2.78,2.78,0,0,0,1.48-.3,8.84,8.84,0,0,0,3.62-2.2,3.16,3.16,0,0,0,.29-4,.72.72,0,0,0-.45-.3,1.32,1.32,0,0,0-.7.25,2,2,0,0,1-2.06-.45,5.84,5.84,0,0,1-1.23-1.88l-1.1-2.25a1.28,1.28,0,0,1,1.59.15,8.5,8.5,0,0,1,1.08,1.36,6.83,6.83,0,0,0,4.67,2.23,4.2,4.2,0,0,1,1.31.28c1.31.61,1.69,2.57,3.07,3a7.51,7.51,0,0,1,1.18.27,2.16,2.16,0,0,1,1,1.49,24.66,24.66,0,0,0,.87,3.33,3,3,0,0,0,2.5,2,2.71,2.71,0,0,0,1.88-.85h0c.06-1,.1-2.08.1-3.14C431.21,304.56,431.21,304.35,431.19,304.13Z"></path></g><path d="M441.91,310a6.44,6.44,0,0,1-.15-2.53,6.31,6.31,0,0,1,.36-2.5,12.07,12.07,0,0,1-.21,5Z" style="fill:#263238"></path><path d="M440.22,319.94a12.45,12.45,0,0,1,1.06-4.92,6.3,6.3,0,0,1-.27,2.51A6.37,6.37,0,0,1,440.22,319.94Z" style="fill:#263238"></path><path d="M436.88,329.41a6.4,6.4,0,0,1,.69-2.43,6.48,6.48,0,0,1,1.18-2.23,6.08,6.08,0,0,1-.69,2.42A6.23,6.23,0,0,1,436.88,329.41Z" style="fill:#263238"></path><path d="M432,338.18a6.3,6.3,0,0,1,1.1-2.28c.72-1.17,1.41-2.07,1.54-2a6.37,6.37,0,0,1-1.1,2.27C432.78,337.36,432.09,338.26,432,338.18Z" style="fill:#263238"></path><path d="M425.65,346a6.56,6.56,0,0,1,1.47-2.06c.91-1,1.74-1.8,1.86-1.71s-.55,1-1.47,2S425.76,346.09,425.65,346Z" style="fill:#263238"></path><path d="M418.12,352.63c-.09-.12.71-.92,1.79-1.78a6.21,6.21,0,0,1,2.12-1.38c.09.1-.71.9-1.79,1.78A6.43,6.43,0,0,1,418.12,352.63Z" style="fill:#263238"></path><path d="M409.57,357.9a6.32,6.32,0,0,1,2.07-1.45,6,6,0,0,1,2.32-1,6.37,6.37,0,0,1-2.07,1.45A6.15,6.15,0,0,1,409.57,357.9Z" style="fill:#263238"></path><path d="M400.26,361.65A12.26,12.26,0,0,1,405,360a6.28,6.28,0,0,1-2.28,1.08A6,6,0,0,1,400.26,361.65Z" style="fill:#263238"></path><path d="M390.43,363.76a6.7,6.7,0,0,1,2.44-.68,6.33,6.33,0,0,1,2.52-.16,6.37,6.37,0,0,1-2.43.68A6.16,6.16,0,0,1,390.43,363.76Z" style="fill:#263238"></path><path d="M380.39,364.19a6.39,6.39,0,0,1,2.52-.21,6.08,6.08,0,0,1,2.51.21,6.4,6.4,0,0,1-2.51.31A6.48,6.48,0,0,1,380.39,364.19Z" style="fill:#263238"></path><path d="M370.42,362.93a6.38,6.38,0,0,1,2.53.16,6.31,6.31,0,0,1,2.43.68,12.16,12.16,0,0,1-5-.84Z" style="fill:#263238"></path><path d="M360.81,360a6.38,6.38,0,0,1,2.46.59,6.15,6.15,0,0,1,2.28,1.09,6.36,6.36,0,0,1-2.45-.6A6.12,6.12,0,0,1,360.81,360Z" style="fill:#263238"></path><path d="M351.84,355.47a6,6,0,0,1,2.32,1,6.32,6.32,0,0,1,2.07,1.45,6.28,6.28,0,0,1-2.32-1A6.37,6.37,0,0,1,351.84,355.47Z" style="fill:#263238"></path><path d="M343.77,349.49a6.42,6.42,0,0,1,2.12,1.38c1.07.86,1.87,1.66,1.79,1.78a6.23,6.23,0,0,1-2.12-1.38C344.47,350.4,343.67,349.6,343.77,349.49Z" style="fill:#263238"></path><path d="M336.81,342.24c.12-.09.95.68,1.86,1.72a6.46,6.46,0,0,1,1.47,2.05c-.11.1-.94-.66-1.86-1.71S336.7,342.33,336.81,342.24Z" style="fill:#263238"></path><path d="M331.18,333.93a6.59,6.59,0,0,1,1.54,2,6.3,6.3,0,0,1,1.1,2.28c-.12.08-.81-.82-1.54-2A6.06,6.06,0,0,1,331.18,333.93Z" style="fill:#263238"></path><path d="M327,324.79a6.48,6.48,0,0,1,1.18,2.23,6.31,6.31,0,0,1,.7,2.43,12.45,12.45,0,0,1-1.88-4.66Z" style="fill:#263238"></path><path d="M324.5,315.06a6.51,6.51,0,0,1,.78,2.41,6.28,6.28,0,0,1,.27,2.51,6.37,6.37,0,0,1-.78-2.4A6.13,6.13,0,0,1,324.5,315.06Z" style="fill:#263238"></path><path d="M323.64,305.05a6.21,6.21,0,0,1,.37,2.5,6.5,6.5,0,0,1-.15,2.53,12.3,12.3,0,0,1-.22-5Z" style="fill:#263238"></path><path d="M324.48,295a6.23,6.23,0,0,1-.06,2.52,6.47,6.47,0,0,1-.57,2.47,6.28,6.28,0,0,1,.06-2.53A6.13,6.13,0,0,1,324.48,295Z" style="fill:#263238"></path><path d="M327,285.31a12.47,12.47,0,0,1-1.47,4.81,6.21,6.21,0,0,1,.49-2.48A6,6,0,0,1,327,285.31Z" style="fill:#263238"></path><path d="M331.13,276.15a6.08,6.08,0,0,1-.9,2.36,6.29,6.29,0,0,1-1.36,2.13,6.2,6.2,0,0,1,.9-2.36A6.38,6.38,0,0,1,331.13,276.15Z" style="fill:#263238"></path><path d="M336.76,267.83a6.28,6.28,0,0,1-1.29,2.17c-.82,1.11-1.58,1.95-1.7,1.87a6.27,6.27,0,0,1,1.29-2.18C335.89,268.57,336.65,267.74,336.76,267.83Z" style="fill:#263238"></path><path d="M343.7,260.57c.1.11-.63,1-1.63,1.93s-1.89,1.65-2,1.55.62-1,1.63-1.93S343.61,260.46,343.7,260.57Z" style="fill:#263238"></path><path d="M351.77,254.58c.07.13-.79.86-1.94,1.63a6.36,6.36,0,0,1-2.22,1.2c-.09-.12.78-.85,1.93-1.63A6.42,6.42,0,0,1,351.77,254.58Z" style="fill:#263238"></path><path d="M360.73,250.05a6.57,6.57,0,0,1-2.18,1.27,6.3,6.3,0,0,1-2.4.8,6.42,6.42,0,0,1,2.18-1.27A6,6,0,0,1,360.73,250.05Z" style="fill:#263238"></path><path d="M370.33,247.1A6.45,6.45,0,0,1,368,248a6.58,6.58,0,0,1-2.5.39,6.18,6.18,0,0,1,2.37-.89A6.28,6.28,0,0,1,370.33,247.1Z" style="fill:#263238"></path><path d="M380.29,245.82a12.46,12.46,0,0,1-5,.43,6.11,6.11,0,0,1,2.49-.48A6.19,6.19,0,0,1,380.29,245.82Z" style="fill:#263238"></path><path d="M390.34,246.23a6.56,6.56,0,0,1-2.53.05,6.17,6.17,0,0,1-2.49-.47,12.3,12.3,0,0,1,5,.42Z" style="fill:#263238"></path><path d="M400.16,248.32a6.34,6.34,0,0,1-2.5-.37,6.64,6.64,0,0,1-2.37-.88,6,6,0,0,1,2.5.37A6.27,6.27,0,0,1,400.16,248.32Z" style="fill:#263238"></path><path d="M409.49,252.06a6.35,6.35,0,0,1-2.4-.8,6.09,6.09,0,0,1-2.18-1.27,6.51,6.51,0,0,1,2.4.8C408.58,251.36,409.56,251.93,409.49,252.06Z" style="fill:#263238"></path><path d="M418.05,257.33a6.36,6.36,0,0,1-2.23-1.2c-1.14-.77-2-1.5-1.94-1.62a6.29,6.29,0,0,1,2.23,1.19C417.27,256.48,418.14,257.21,418.05,257.33Z" style="fill:#263238"></path><path d="M425.6,264c-.11.1-1-.59-2-1.54s-1.73-1.82-1.64-1.93,1,.59,2,1.55S425.7,263.86,425.6,264Z" style="fill:#263238"></path><path d="M431.92,271.76c-.12.08-.88-.76-1.71-1.87a6.38,6.38,0,0,1-1.29-2.17c.11-.09.88.74,1.71,1.86A6.27,6.27,0,0,1,431.92,271.76Z" style="fill:#263238"></path><path d="M436.84,280.51a12.08,12.08,0,0,1-2.27-4.48,6.4,6.4,0,0,1,1.36,2.12A6.18,6.18,0,0,1,436.84,280.51Z" style="fill:#263238"></path><path d="M440.2,290a6.5,6.5,0,0,1-1-2.33,6.61,6.61,0,0,1-.49-2.48,6.1,6.1,0,0,1,1,2.33A6.21,6.21,0,0,1,440.2,290Z" style="fill:#263238"></path><path d="M441.9,299.88a12.19,12.19,0,0,1-.64-5,6.3,6.3,0,0,1,.58,2.46A6.06,6.06,0,0,1,441.9,299.88Z" style="fill:#263238"></path><path d="M345.8,326.91a2,2,0,0,1-.32-.5c-.18-.35-.49-.84-.8-1.51a40.54,40.54,0,0,1-2.38-5.82,45.51,45.51,0,0,1,5.63-39.77,41.43,41.43,0,0,1,3.9-4.93c.49-.56.91-.95,1.19-1.22a2.7,2.7,0,0,1,.44-.4,2.76,2.76,0,0,1-.37.47c-.25.3-.65.71-1.11,1.28a47.83,47.83,0,0,0-3.74,5A46.45,46.45,0,0,0,342.65,319a49.32,49.32,0,0,0,2.21,5.84c.29.69.56,1.19.71,1.55A2.62,2.62,0,0,1,345.8,326.91Z" style="fill:#fff"></path><path d="M366.7,344.7a8.16,8.16,0,0,1-2-.89,47.2,47.2,0,0,1-4.51-2.73,46.46,46.46,0,0,1-4.19-3.22,8,8,0,0,1-1.56-1.53c.1-.12,2.66,2,6,4.32S366.77,344.56,366.7,344.7Z" style="fill:#fff"></path><path d="M425.33,291.79c-.1,0-.46-2-1.57-5a38.8,38.8,0,0,0-2.34-5.15,43.44,43.44,0,0,0-3.85-5.76,42.47,42.47,0,0,0-4.81-5,38.55,38.55,0,0,0-4.53-3.38c-2.73-1.73-4.59-2.5-4.55-2.6a7.21,7.21,0,0,1,1.32.51,14.62,14.62,0,0,1,1.5.71c.57.31,1.24.62,1.92,1.07a35.13,35.13,0,0,1,4.66,3.33,40.43,40.43,0,0,1,4.9,5,39.77,39.77,0,0,1,3.86,5.85,35.42,35.42,0,0,1,2.27,5.25c.29.76.45,1.48.63,2.11a15.55,15.55,0,0,1,.38,1.61A6.71,6.71,0,0,1,425.33,291.79Z" style="fill:#fff"></path><g style="opacity:0.2"><path d="M373.3,269.62a10.55,10.55,0,0,0-2.13,2.46c-.72.82-2,1.41-2.84.72a2,2,0,0,1-.64-1.4,3.61,3.61,0,0,1,.5-2.18c.41-.67,1-1.2,1.36-1.9a1.56,1.56,0,0,0-.42-2.06c-.38-.18-.86-.11-1.19-.36-.61-.45-.17-1.52.53-1.79a5.35,5.35,0,0,1,2.22,0c2.71.18,4.7-1.63,6.74-3.13,1.58-1.17,5-2.55,6.79-1.35a1.46,1.46,0,0,1,.33,2.23c-.31.24-.73.3-1,.56s-.39.85-.59,1.28c-.51,1.12-2,1.52-2.47,2.66-.28.68-.16,1.53-.6,2.12a2.56,2.56,0,0,1-1.52.77l-3.53.86A5,5,0,0,0,373.3,269.62Z"></path></g><g style="opacity:0.2"><path d="M404.89,328.25c-1.17,1.8-1.38,4.05-1.71,6.19s-.88,4.4-2.49,5.81-4.57,1.32-5.46-.64c-.48-1.07-.23-2.33-.49-3.47-.34-1.49-1.51-2.63-2.06-4.05a11.62,11.62,0,0,1-.51-3.86c-.21-7.11-1.91-14.54-6.67-19.76a4.57,4.57,0,0,0-2.08-1.49,2.61,2.61,0,0,0-2.72,1,11.72,11.72,0,0,1-1.05,1.61c-1,.94-2.79.26-3.47-1a7.15,7.15,0,0,1-.47-4.11l.42-5.2a4.34,4.34,0,0,1,.76-2.56c.83-1,2.32-1,3.33-1.8,1.33-1,1.51-3,2.35-4.42s3.47-2.09,3.86-.44c2.78-6.06,8.92,2.95,12.58,2.27a9.75,9.75,0,0,1,3.16-.56c1.89.26,2.86,2.38,3.51,4.21q1.59,4.54,3.19,9.1c.41,1.15.93,2.44,2.05,2.88.87.34,1.86.08,2.73.4,2.29.85,1.55,4.53-.3,6.15s-4.43,2.66-5.31,5c-.66,1.74-.13,3.79-.84,5.52C406.69,326.24,405.62,327.14,404.89,328.25Z"></path></g><g style="opacity:0.2"><path d="M413.6,330.23c-.76.11-1.65-.27-2.22.24a2.56,2.56,0,0,0-.54,1.22,2.61,2.61,0,0,1-1.07,1.48,1.57,1.57,0,0,1-1.74,0,1.22,1.22,0,0,1-.24-1.66,6.65,6.65,0,0,1,.65-.54c1-1,.32-2.75,1.08-3.9.44-.67,1.15-1.36,1.64-2,.38-.53.52-.94,1.22-1.08C415.42,323.3,416.8,329.77,413.6,330.23Z"></path></g></g></svg>
